<?xml version="1.0" standalone="no"?>
<!DOCTYPE svg PUBLIC "-//W3C//DTD SVG 1.1//EN" "http://www.w3.org/Graphics/SVG/1.1/DTD/svg11.dtd" >
<svg xmlns="http://www.w3.org/2000/svg">
<metadata></metadata>
<defs>
<font id="economicaitalic" horiz-adv-x="839" >
<font-face units-per-em="2048" ascent="1638" descent="-410" />
<missing-glyph horiz-adv-x="389" />
<glyph unicode="&#xfb01;" horiz-adv-x="841" d="M102 -410l215 1348l17 51h-109l19 111h108v51l4 33q14 90 20.5 126t26 83t36 59t60.5 28.5t92 17.5t136 1h207l-14 -102h-230.5t-117 -9.5t-39 -16.5t-21.5 -39t-18.5 -57.5t-14.5 -90.5l-4 -33l-16 -51h311q55 0 73.5 -7.5t18.5 -29t-6 -57.5l-158 -1006q-100 0 -108 16 q-4 8 -4 24.5t6 53.5l141 895h-295v-51l-194 -1231q-14 -88 -32.5 -102.5t-109.5 -14.5z" />
<glyph unicode="&#xfb02;" horiz-adv-x="829" d="M100 -410l215 1348l17 51h-109l19 111h108v51l4 33q14 90 20.5 126t26 83t36 59t60.5 28.5t92 17.5t136 1h86q100 0 109 -16q4 -8 4 -24.5t-6 -53.5l-222 -1405q-100 0 -108 16q-4 8 -4 24.5t6 53.5l207 1303h-140.5t-86 -9.5t-39 -16.5t-21.5 -39t-18.5 -57.5 t-14.5 -90.5l-4 -33l-16 -51h141l-18 -111h-144v-51l-194 -1231q-14 -88 -33 -102.5t-109 -14.5z" />
<glyph unicode="&#xfb03;" horiz-adv-x="1175" d="M-147 -410l14 91q80 0 128 17t76.5 64.5t41 95.5t26.5 142l144 928l20 61h-110l18 111h108v61l5 23q31 193 65 227q55 59 103 68q104 18 227 18l-14 -96q-160 0 -197 -32t-62 -185l-22 -84h285v61l4 23q31 193 65 227q55 59 103 68q104 18 227 18h168l-16 -96h-166 q-160 0 -197 -32t-61 -185l-23 -84h184l-18 -111h-186v-61l-148 -928q-35 -197 -59.5 -238t-55 -76.5t-67.5 -54.5q-92 -41 -221 -41l14 91q80 0 128 17t76.5 64.5t41 95.5t26.5 142l144 928l20 61h-289v-61l-147 -928q-35 -197 -59.5 -238t-55 -76.5t-67.5 -54.5 q-92 -41 -221 -41zM909 32.5q0 16.5 168 1067.5q72 0 92.5 -5t20.5 -22.5t-8 -66.5l-160 -1014q-101 0 -109 16q-4 8 -4 24.5z" />
<glyph unicode="&#xfb04;" horiz-adv-x="1150" d="M-147 -410l14 91q80 0 128 17t76.5 64.5t41 95.5t26.5 142l144 928l20 61h-110l18 111h108v61l5 23q31 193 65 227q55 59 103 68q104 18 227 18l-14 -96q-160 0 -197 -32t-62 -185l-22 -84h281v61l4 23q31 193 65 227q55 59 103 68q104 18 227 18h67q100 0 109 -16 q4 -8 4 -24.5t-229 -1464.5q-100 0 -109 16q-4 8 -4 24.5t213 1368.5h-68q-158 0 -194.5 -32t-61.5 -185l-22 -84h184l-18 -111h-187v-61l-147 -928q-35 -197 -59.5 -238t-55 -76.5t-67.5 -54.5q-92 -41 -221 -41l14 91q80 0 128 17t76.5 64.5t41 95.5t26.5 142l144 928 l20 61h-285v-61l-147 -928q-35 -197 -59.5 -238t-55 -76.5t-67.5 -54.5q-92 -41 -221 -41z" />
<glyph horiz-adv-x="2048" />
<glyph horiz-adv-x="2048" />
<glyph unicode="&#xd;" horiz-adv-x="681" />
<glyph unicode=" "  horiz-adv-x="389" />
<glyph unicode="&#x09;" horiz-adv-x="389" />
<glyph unicode="&#xa0;" horiz-adv-x="389" />
<glyph unicode="!" horiz-adv-x="329" d="M82 88q0 37 34 71t72.5 34t61 -23t22.5 -61.5t-32.5 -69.5t-71.5 -31t-62.5 21.5t-23.5 58.5zM190 385l175 1008q8 53 25.5 70.5t60.5 17.5l71 -4l-196 -1006q-12 -59 -22.5 -74.5t-49.5 -15.5z" />
<glyph unicode="&#x22;" horiz-adv-x="679" d="M287 1085q59 132 59 218q0 37 -11 67.5t-11 34.5q0 37 35.5 65.5t71.5 28.5t58.5 -22.5t22.5 -54t-38 -127t-76 -178.5t-40 -83zM582 1085q59 132 59 218q0 37 -11.5 67.5t-11.5 34.5q0 37 36 65.5t72 28.5t58.5 -22.5t22.5 -54t-38 -127t-76 -178.5t-40 -83z" />
<glyph unicode="#" horiz-adv-x="1341" d="M82 0l272 489h-233l20 129h285l164 291h-314l21 129h367l256 461h139l-256 -461h297l256 461h139l-256 -461h223l-20 -129h-277l-164 -291h306l-21 -129h-356l-273 -489h-139l273 489h-297l-273 -489h-139zM565 618h297l164 291h-297z" />
<glyph unicode="$" horiz-adv-x="802" d="M156 20l14 95q164 -20 223.5 -20.5t91 14t47.5 47.5q27 51 35 107t11 65v12q0 72 -160 201q-59 49 -109.5 118.5t-50.5 137.5q0 295 272 315l29 180q59 0 74.5 -5t15.5 -32l-6 -57l-12 -98l127 -19q-16 -92 -86 -92q-10 0 -31 4l-70 13q-111 0 -150.5 -50.5t-39.5 -134.5 q0 -45 52 -102t115.5 -105.5t116 -115t52.5 -129.5q0 -23 -12.5 -86.5t-31 -116.5t-42.5 -82q-63 -74 -168 -92l-41 -240q-57 0 -73.5 5t-16.5 20.5t8 68.5l18 140q-23 2 -202 34z" />
<glyph unicode="%" horiz-adv-x="1251" d="M233 0l838 1499h139l-837 -1499h-140zM268 1020q0 217 65.5 352t194.5 135q88 0 125 -29.5t37 -123.5q0 -215 -70.5 -359.5t-195.5 -144.5q-82 0 -119 36t-37 134zM362 1055q0 -106 78 -107q45 0 78 42t47 108q27 121 27 201.5t-18.5 95t-59.5 14.5t-59 -8 q-49 -25 -78 -213q-15 -80 -15 -133zM737 156q0 217 65.5 352t194.5 135q88 0 125 -29.5t37 -124.5q0 -215 -70.5 -359t-195.5 -144q-82 0 -119 35.5t-37 134.5zM834 182q0 -59 18 -78.5t61 -19.5t76 41t47 106q25 113 25 199t-17.5 100.5t-60.5 14.5q-66 0 -107.5 -110.5 t-41.5 -252.5z" />
<glyph unicode="&#x26;" horiz-adv-x="1097" d="M152 303q0 166 71.5 301t177.5 209q-37 31 -52 47.5t-31.5 54t-16.5 125.5t35 178.5t90 135.5q102 82 229 82l242 -19l-6 -31q-2 -10 -3 -21t-7.5 -16.5t-8.5 -9.5t-14 -6t-17 -4t-26.5 -4t-34.5 -4h-143q-207 0 -207 -328q0 -82 37 -102.5t127 -20.5l-21 -120 q-115 0 -201.5 -117t-86.5 -309q0 -223 219 -224q258 0 311 324l45 274l14 52h-108l18 110h109v51l14 90q109 0 117 -18q4 -10 4 -22.5t-4 -53.5l-16 -47h166q-10 -74 -29 -92t-92 -18h-62v-52l-45 -274q-37 -221 -146.5 -329.5t-299 -108.5t-269 75.5t-79.5 241.5z" />
<glyph unicode="'" horiz-adv-x="337" d="M236 1085q94 207 94 297q0 49 30.5 83t71.5 34t63.5 -22.5t22.5 -55t-51 -128t-102.5 -177.5t-57.5 -82z" />
<glyph unicode="(" horiz-adv-x="507" d="M131 83q0 167 26.5 400.5t82 495.5t162 441t241.5 179q43 0 92 -18q-12 -72 -27.5 -84t-91.5 -12q-94 0 -183 -308.5t-134 -636t-45 -454.5t25.5 -171t86 -44t78 -6t17.5 -21.5t-8 -68.5q-181 0 -251.5 70.5t-70.5 237.5z" />
<glyph unicode=")" horiz-adv-x="509" d="M8 -225q10 72 25.5 84t91.5 12q94 0 179 308t125 632t40 453t-25.5 175t-85 46t-77 5t-17.5 21.5t8 69.5q178 0 248 -74.5t70 -225.5t-12.5 -322t-47 -388t-87 -394t-141.5 -300t-200 -123q-47 0 -94 21z" />
<glyph unicode="*" horiz-adv-x="618" d="M248 1202l18 94h176l-77 150l98 53l57 -160l103 158l82 -53l-119 -137h174l-17 -95h-178l82 -147l-100 -51l-58 160l-102 -156l-82 51l119 133h-176z" />
<glyph unicode="+" horiz-adv-x="497" d="M127 614l16 105h174v51l27 135h105l-27 -135l-16 -51h176l-17 -105h-176v-51l-27 -137h-104l27 137l16 51h-174z" />
<glyph unicode="," horiz-adv-x="315" d="M33 -197q61 104 69.5 141.5t9.5 48.5t0 47t-1 48q0 39 34.5 68.5t73.5 29.5q72 0 72 -63q0 -41 -92.5 -198.5t-104.5 -157.5z" />
<glyph unicode="-" horiz-adv-x="688" d="M219 614l17 105h438l-17 -105h-438z" />
<glyph unicode="." horiz-adv-x="362" d="M100 83q0 38 34 70.5t73 32.5t61.5 -21.5t22.5 -60t-34 -71.5t-72 -33t-61.5 22.5t-23.5 60.5z" />
<glyph unicode="/" horiz-adv-x="761" d="M-45 -410l901 1909h131l-903 -1909h-129z" />
<glyph unicode="0" d="M123 274.5q0 159.5 25.5 360.5t76.5 401.5t149.5 331.5t227.5 131t182.5 -62.5t53.5 -221t-26 -360.5t-78 -403.5t-150.5 -333.5t-226.5 -132t-181 64.5t-53 224zM258 343q0 -130 28.5 -176t96.5 -46q94 0 172 212t112.5 449.5t34.5 365.5t-28.5 173t-93.5 45 q-98 0 -176 -211t-112 -446.5t-34 -365.5z" />
<glyph unicode="1" d="M123 0l18 117h191l198 1249l-131 -20l17 108l133 21h10q96 0 105 -17q4 -8 4 -24.5t-6 -53.5l-199 -1263h137q70 0 90.5 -7.5t20.5 -30t-9 -79.5h-579z" />
<glyph unicode="2" d="M123 0l74 469q23 145 194 303q72 66 144 129q172 154 190 273q10 82 10 88q0 59 -42 89.5t-152 30.5h-103q-61 0 -77.5 5.5t-16.5 21.5t8 70l219 20q178 0 245 -45t67 -141q0 -51 -17.5 -153.5t-100.5 -209t-175 -182.5q-242 -203 -260 -315l-47 -285l-15 -51h432 l-18 -117h-559z" />
<glyph unicode="3" d="M123 20l16 101q143 -20 209 -21q121 0 157 68t72.5 307.5t36.5 299t-30.5 84t-110.5 24.5h-100l276 483h-311l18 109h490l-277 -486q100 -8 140.5 -47t40.5 -116.5t-41 -343t-74 -345.5q-45 -109 -148 -137q-55 -14 -117.5 -14t-98 5t-81 15t-67.5 14z" />
<glyph unicode="4" d="M20 508l564 967h151l-129 -809l-16 -52h90l-16 -106h-91v-51l-71 -457h-4q-98 0 -107 16q-4 8 -4 24.5t6 53.5l58 363l16 51h-447zM225 614h258v52l97 604h-17z" />
<glyph unicode="5" d="M123 0l14 94h213q70 0 124 65.5t83 170.5q59 205 59 432q0 72 -30.5 96.5t-110.5 24.5h-211l94 592h490l-19 -109h-368v-51l-43 -273l-17 -51h156q109 0 151 -41t42 -147.5t-14.5 -234.5t-47.5 -269t-100.5 -232.5t-150.5 -91.5t-314 25z" />
<glyph unicode="6" d="M123 274.5q0 32.5 7 84t13.5 86t15.5 88t23.5 140.5t30.5 177t43 208t55.5 185.5t69.5 132.5q80 123 219 123l244 -20q-10 -72 -26.5 -84.5t-92.5 -12.5h-143q-74 0 -112 -85t-101 -343l129 52q147 0 202.5 -39t55.5 -148q0 -819 -416 -819q-106 0 -152 53 q-53 63 -59 126t-6 95.5zM254 285.5q0 -29.5 4 -71.5t28.5 -73.5t82 -31.5t112 65.5t84.5 169.5q57 203 58 432q0 72 -31 96.5t-111 24.5l-137 -47q-2 -33 -15.5 -95.5t-26.5 -128t-27.5 -141t-17.5 -123t-3 -77z" />
<glyph unicode="7" d="M184 0l619 1366h-424l18 109h566l-19 -109l-629 -1366h-131z" />
<glyph unicode="8" d="M123 306q0 165 70.5 300t177.5 207q-92 73 -92 231q0 250 141 392q80 80 196 80q219 0 220 -254q0 -166 -59.5 -290t-139.5 -177q121 -102 121 -283q0 -272 -168 -436q-92 -90 -215 -90t-187.5 77.5t-64.5 242.5zM252 300q0 -200 139 -200q98 0 168 114t70 308 q0 106 -39 167t-96 61q-88 0 -165 -125t-77 -325zM405.5 1040q0.5 -102 27 -136t82.5 -34t97 41t60 109q35 125 35 223t-27 128t-84 30t-98 -39t-60 -105q-33 -115 -32.5 -217z" />
<glyph unicode="9" d="M123 20l16 97h246q70 0 125 105.5t113 340.5l-134 -69q-150 0 -204 38.5t-54 145.5q0 821 416 821q123 0 170 -41t47 -142.5t-34.5 -330.5t-48 -303t-36 -183.5t-44 -170t-55.5 -133t-73 -109.5q-90 -86 -206 -86zM365 723q0 -72 29.5 -96.5t111.5 -24.5l141 66 q35 163 62.5 354.5t27.5 256t-23.5 88.5t-88 24t-118.5 -65.5t-85 -170.5q-57 -203 -57 -432z" />
<glyph unicode=":" horiz-adv-x="370" d="M96 83q0 38 34 70.5t73 32.5t61.5 -21.5t22.5 -60t-34 -71.5t-72 -33t-61.5 22.5t-23.5 60.5zM254 996q0 38 35 71t73.5 33t60 -21.5t21.5 -60.5t-33.5 -72t-71.5 -33t-61.5 22.5t-23.5 60.5z" />
<glyph unicode=";" horiz-adv-x="313" d="M33 -197q61 104 69.5 141.5t9.5 48.5t0 47t-1 48q0 39 34.5 68.5t73.5 29.5q72 0 72 -63q0 -41 -92.5 -198.5t-104.5 -157.5zM242 996q0 38 34.5 71t73.5 33t60.5 -21.5t21.5 -60.5t-33.5 -72t-71.5 -33t-61.5 22.5t-23.5 60.5z" />
<glyph unicode="&#x3c;" horiz-adv-x="485" d="M113 590l8 53l346 457h111l-361 -484l207 -499h-113z" />
<glyph unicode="=" horiz-adv-x="743" d="M203 506l16 104h559l-16 -104h-559zM236 719l16 104h559l-16 -104h-559z" />
<glyph unicode="&#x3e;" horiz-adv-x="483" d="M96 117l363 499l-205 484h111l198 -457l-8 -53l-346 -473h-113z" />
<glyph unicode="?" horiz-adv-x="694" d="M135 83q0 38 34 70.5t73 32.5t61.5 -21.5t22.5 -60t-34 -71.5t-72 -33t-61.5 22.5t-23.5 60.5zM217 406l10 63q23 145 166 303q59 66 119 129q143 154 162 273q8 57 8 77q0 66 -44 98.5t-161 32.5h-82q-59 0 -76.5 5.5t-17.5 21.5t8 70l199 20q178 0 243.5 -45t65.5 -141 q0 -35 -16.5 -142.5t-87 -213t-146.5 -179.5q-203 -195 -221 -309l-10 -63h-119z" />
<glyph unicode="@" horiz-adv-x="1138" d="M162 219q0 129 74 598q20 137 75.5 197.5t220.5 72.5q508 27 525 27q82 0 114.5 -32.5t32.5 -81t-6 -85.5l-51 -321q-29 -188 -70 -221q-51 -43 -110.5 -47t-129 -4t-93 15t-31.5 50l-138 -76q-76 0 -100 13.5t-24 64.5t22 191l12 73q29 170 306 170h94l-56 -354l-20 -39 h49q106 0 132 26.5t42 133.5l53 338l2 20q0 53 -61 53q-6 0 -514 -32q-96 -4 -127 -51q-20 -31 -31 -97q-70 -451 -69.5 -553t29 -147t96.5 -45h370q61 0 80 -7.5t19 -25.5t-9 -76h-483q-123 0 -174 61.5t-51 190.5zM563.5 446.5q-0.5 -24.5 9.5 -28.5l158 65v23l33 211 q-154 0 -162 -41l-24 -135q-14 -70 -14.5 -94.5z" />
<glyph unicode="A" horiz-adv-x="890" d="M55 27v6q0 10 159 419.5t394 1022.5h131l101 -1475h-11q-92 0 -108 12.5t-21 81.5l-26 408h-312l-188 -502h-10q-68 0 -88.5 4t-20.5 23zM399 614h279l-27 52v546h-39l-186 -546z" />
<glyph unicode="B" horiz-adv-x="890" d="M154 0l233 1479l215 20q182 0 250 -53t68 -162q0 -152 -36 -291t-93 -184q82 -51 82 -176q0 -122 -7 -206q-6 -77 -32.5 -169t-74.5 -147.5t-134 -90t-197 -34.5h-25zM289 102h133q162 0 240 103q61 82 73 246q4 59 4 142t-42 115.5t-152 32.5h-154v-51l-86 -536z M410 858h71q154 0 228 64q59 49 69 186q4 51 4 132t-46 111.5t-173 30.5h-71v-51l-66 -422z" />
<glyph unicode="C" horiz-adv-x="772" d="M201 299q0 145 12 289.5t48 318.5t90.5 306.5t143.5 210t189 77.5q16 0 35 -2l199 -41q-15 -90 -93 -90l-24 2l-101 12q-10 2 -20 2q-84 0 -155.5 -110.5t-110.5 -290.5q-80 -356 -80 -627q0 -117 38 -178t130 -61q47 0 113.5 9t95.5 11l-19 -117q-23 -4 -94.5 -19 t-118.5 -15q-154 0 -216 84t-62 229z" />
<glyph unicode="D" horiz-adv-x="966" d="M154 0l233 1479l332 20q153 0 216.5 -83t63.5 -225t-12 -283.5t-47 -311.5t-88 -301t-146.5 -220t-211.5 -89q-10 0 -340 14zM289 102h209q96 0 173 118t115 292q80 346 80 633q0 117 -37.5 177t-128.5 60h-208v-51l-187 -1177z" />
<glyph unicode="E" horiz-adv-x="788" d="M154 0l233 1475h539l-19 -109h-411v-51l-64 -408l-16 -51h383l-19 -117h-383v-51l-84 -520l-14 -51h432l-18 -117h-559z" />
<glyph unicode="F" horiz-adv-x="768" d="M162 40.5q0 16.5 6 53.5l219 1381h539l-19 -109h-411v-51l-64 -408l-16 -51h383l-19 -117h-383v-51l-108 -688h-17q-98 0 -106 16q-4 8 -4 24.5z" />
<glyph unicode="G" horiz-adv-x="913" d="M221 297q0 143 11.5 283.5t44 309.5t84 301t140.5 221t204 89l274 -43q-14 -90 -92 -90l-185 14q-92 0 -164.5 -121.5t-109.5 -299.5q-76 -367 -76 -617q0 -119 38 -180.5t128 -61.5q33 0 97.5 10.5t72.5 10.5v51l72 455q14 88 28.5 103.5t83.5 15.5h35l-114 -728 q-31 -4 -93 -14q-123 -20 -200 -20q-154 0 -216.5 84t-62.5 227z" />
<glyph unicode="H" horiz-adv-x="935" d="M154 0l233 1475h8q96 0 105 -17q4 -8 4 -24.5t-80 -526.5l-16 -51h391v51l90 568h8q96 0 104 -17q5 -9 5 -25q0 -20 -224 -1433h-8q-98 0 -106 16q-4 8 -4 24.5t100 647.5l16 51h-391v-51l-94 -594q-10 -70 -27.5 -82t-105.5 -12h-8z" />
<glyph unicode="I" horiz-adv-x="436" d="M162 40.5q0 16.5 225 1434.5h10q96 0 105 -17q4 -8 4 -24.5t-223 -1433.5h-11q-98 0 -106 16q-4 8 -4 24.5z" />
<glyph unicode="J" horiz-adv-x="503" d="M-16 -307q68 0 97.5 22.5t47.5 38t34.5 47t28 55t23.5 68.5t19.5 75t19.5 89q20 115 33 197l188 1190h10q96 0 105 -17q4 -8 4 -24.5t-97.5 -636t-109.5 -685t-31.5 -148.5t-40 -131t-52.5 -100t-70 -81q-84 -62 -209 -62v103z" />
<glyph unicode="K" horiz-adv-x="843" d="M154 0l233 1475h8q96 0 105 -17q4 -8 4 -24.5t-209 -1339.5q-10 -70 -27.5 -82t-105.5 -12h-8zM426 743l422 732h8q63 0 84 -3.5t21 -17.5v-6t-113 -202.5t-283 -502.5l203 -743h-8q-96 0 -123 13.5t-49 80.5z" />
<glyph unicode="L" horiz-adv-x="739" d="M154 0l233 1475h16q96 0 105 -17q4 -8 4 -24.5t-199 -1265.5l-14 -51h264q96 0 105 -17q4 -8 4 -22l-8 -78h-510z" />
<glyph unicode="M" horiz-adv-x="1196" d="M143 0l234 1475h10q88 0 107.5 -12.5t40.5 -82.5l172 -561h30l410 656h10q96 0 105 -17q4 -8 4 -24.5t-224 -1433.5h-8q-100 0 -108 16q-4 8 -4 25.5t178 1142.5h-10l-15 -37l-268 -436l-64 -95h-106l-35 93l-135 438v37h-10l-172 -1090q-10 -70 -27.5 -82t-105.5 -12h-9 z" />
<glyph unicode="N" horiz-adv-x="931" d="M143 0l234 1475h10q88 0 105.5 -12.5t29.5 -82.5l180 -995v-55h11l182 1145h8q96 0 105 -17q4 -8 4 -24.5t-224 -1433.5h-8q-88 0 -106.5 12.5t-32.5 81.5l-184 973v55h-11l-161 -1028q-10 -70 -27.5 -82t-105.5 -12h-9z" />
<glyph unicode="O" horiz-adv-x="985" d="M209 348.5q0 188.5 28.5 382t87 370.5t164 287.5t249 110.5t208 -83t64.5 -270.5t-30 -383t-88 -374.5t-162.5 -290.5t-248 -111.5t-208 87t-64.5 275.5zM348 371q0 -135 37 -202t124 -67t158.5 110t113.5 273.5t64.5 329.5t22.5 301t-36.5 200.5t-121.5 65.5 t-158 -109.5t-116 -273.5q-88 -336 -88 -628z" />
<glyph unicode="P" horiz-adv-x="940" d="M154 0l233 1479l277 20q195 0 265 -53t70 -164t-6 -183.5t-32.5 -155.5t-74.5 -130t-135 -80t-212 -33h-154v-51l-88 -555q-10 -70 -28.5 -82t-104.5 -12h-10zM403 817h154q201 0 258 125q31 66 40 132.5t9 156.5t-46 120.5t-173 30.5h-153v-51l-72 -463z" />
<glyph unicode="Q" horiz-adv-x="958" d="M154 -252l6 35q6 43 18 51l232 160q-106 20 -153.5 106t-47.5 263.5t29.5 371t89 368.5t164 285.5t246 110.5t206 -86t64.5 -243.5t-26 -343t-71 -374t-123.5 -318.5t-171.5 -130l-262 -162q55 -4 339 -41t335 -37t62 3l24 -5l-6 -38q-8 -55 -24.5 -64.5t-92.5 -9.5 t-395 48t-391 48l-25 -2zM342 391q0 -289 166 -289q88 0 162.5 108.5t115.5 270.5q90 344 91 629q0 137 -39 204.5t-128 67.5t-163 -107.5t-117 -266.5q-88 -328 -88 -617z" />
<glyph unicode="R" horiz-adv-x="927" d="M154 0l233 1479l236 20q170 0 233.5 -51t63.5 -151.5t-15 -194.5q-61 -399 -272 -400h-10l229 -702h-8q-104 0 -127 11.5t-43 82.5l-180 606h-109v-51l-88 -555h2q-10 -70 -27.5 -82t-105.5 -12h-12zM403 817h113q170 0 221 137q45 117 45 301q0 70 -37.5 98.5 t-140.5 28.5h-104l-80 -514z" />
<glyph unicode="S" horiz-adv-x="800" d="M80 27l16 114l297 -20q168 0 223 112q47 94 48 240q0 63 -63.5 144t-139.5 150t-139.5 165t-63.5 186q0 195 79 288t300 93h10l211 -41q-8 -51 -25.5 -68.5t-50.5 -17.5l-26 2l-113 12q-143 0 -196.5 -62t-53.5 -179q0 -72 63.5 -153t139.5 -144.5t139.5 -152.5 t63.5 -177q0 -530 -430 -532z" />
<glyph unicode="T" horiz-adv-x="681" d="M266 1366l19 109h579l-18 -109h-232v-51l-192 -1221q-10 -70 -27.5 -82t-105.5 -12h-17l207 1315l17 51h-230z" />
<glyph unicode="U" horiz-adv-x="958" d="M207 233q0 70 26.5 249.5t155.5 992.5h14q96 0 105 -17q4 -8 4 -24q0 -18 -86 -562q-85 -538 -85 -616q0 -75 35 -115q34 -39 127 -39t142 76q72 111 154 576q35 201 116 721h15q96 0 104 -17q4 -8 4 -24.5t-6 -53.5q-145 -936 -231 -1165t-324 -229q-152 0 -211 59 t-59 188z" />
<glyph unicode="V" horiz-adv-x="847" d="M188 164v1311h21q82 0 96 -12.5t14 -82.5v-1120h27l457 1215h31q51 0 64 -3.5t13 -19.5v-8v-2l-60 -161t-413 -1117q-45 -123 -63.5 -143.5t-79.5 -20.5q-35 0 -57 25q-45 49 -50 139z" />
<glyph unicode="W" horiz-adv-x="1171" d="M164 164v1311h24q74 0 85.5 -11.5t13.5 -83.5l10 -1118h35l250 692l51 111h117l45 -113v-690h32l402 1213h67q59 0 60 -35q0 -39 -436 -1276q-43 -123 -60.5 -143.5t-79.5 -20.5q-35 0 -57 25q-45 49 -49 139v674h-27l-239 -674q-45 -125 -61.5 -144.5t-78.5 -19.5 q-35 0 -57 25q-47 51 -47 139z" />
<glyph unicode="X" horiz-adv-x="784" d="M51 0l385 729l-131 746h47q66 0 80 -12.5t27 -82.5l71 -518h39l279 613h55q57 0 58 -25q0 -41 -369 -721l135 -729h-43q-70 0 -83 11.5t-26 82.5l-69 486h-39l-231 -486q-35 -70 -53.5 -82t-84.5 -12h-47z" />
<glyph unicode="Y" horiz-adv-x="768" d="M285 1475h30q78 0 93.5 -11.5t27.5 -83.5l88 -495h11l301 590h55q55 0 55 -23q0 -41 -383 -741l-110 -711h-11q-98 0 -106 16q-4 8 -4 24.5t102 670.5z" />
<glyph unicode="Z" horiz-adv-x="757" d="M76 0l18 117l662 1249h-445q14 82 27.5 95.5t85.5 13.5h491l-18 -109l-668 -1249h324q70 0 90.5 -7.5t20.5 -30t-9 -79.5h-579z" />
<glyph unicode="[" horiz-adv-x="411" d="M106 -117.5q0 15.5 267 1698.5h164q63 0 81.5 -5t18.5 -20.5t-8 -68.5h-164l-242 -1536h56q63 0 81.5 -5t18.5 -20.5t-8 -68.5h-164q-63 0 -82 5t-19 20.5z" />
<glyph unicode="\" horiz-adv-x="761" d="M246 1499h131l301 -1909h-131z" />
<glyph unicode="]" horiz-adv-x="417" d="M-6 -143q10 70 25.5 82t97.5 12h55l242 1536h-164q12 72 27.5 83t97.5 11h164l-258 -1630q-10 -70 -26.5 -82t-98.5 -12h-162z" />
<glyph unicode="^" horiz-adv-x="841" d="M274 1243l17 113l338 143h53l295 -145l-16 -111l-320 156z" />
<glyph unicode="_" horiz-adv-x="1255" d="M121 -2l16 104h1008l-17 -104h-1007z" />
<glyph unicode="`" horiz-adv-x="352" d="M246 1436l16 14q55 49 74.5 49t75.5 -67l114 -156l-84 -74z" />
<glyph unicode="a" horiz-adv-x="753" d="M131 191.5q0 115.5 16.5 259t52.5 303t108.5 266t168.5 106.5q31 0 70 -13t92 -29.5t77.5 -24.5t49.5 -19q45 -20 45 -47q0 -8 -154 -993q-72 0 -94 7t-18 36l18 135l-237 -192q-121 0 -158 45t-37 160.5zM256 241q0 -87 14.5 -111t75.5 -24l242 177v51l92 567l16 51 q-176 58 -207 58q-78 0 -135 -172t-77.5 -341t-20.5 -256z" />
<glyph unicode="b" horiz-adv-x="763" d="M113 0l235 1499q99 0 107 -16q4 -8 4 -25.5t-51 -343.5h151q129 0 179 -51t50 -166t-16 -256t-51 -299t-104.5 -263.5t-161.5 -105.5q-37 0 -207 136q-12 -82 -29.5 -95.5t-105.5 -13.5zM252 188q172 -104 188 -104q70 0 124 165t77 334t23 258t-27 127t-88 38h-178 l10 -39l-113 -727z" />
<glyph unicode="c" horiz-adv-x="622" d="M145 196.5q0 112.5 15.5 254t50.5 301t105.5 267t164.5 107.5q20 0 232 -39q-16 -92 -86 -92l-135 21q-72 0 -126.5 -170t-75 -339t-20.5 -257t26 -122t89 -34l180 21l-14 -95l-184 -34q-123 0 -172.5 49t-49.5 161.5z" />
<glyph unicode="d" horiz-adv-x="794" d="M145 194.5q0 112.5 16.5 256t52.5 303t108.5 266t169.5 106.5l215 -12l61 385q98 0 106 -16q5 -9 5 -27q0 -17 -7 -51l-221 -1405q-98 0 -106 16q-4 8 -4 21.5t8 71.5l-182 -123q-123 0 -172.5 48t-49.5 160.5zM270 243q0 -85 27 -117t90 -32l182 92v52l113 716l16 52 l-194 4q-78 0 -135.5 -172t-78 -341t-20.5 -254z" />
<glyph unicode="e" horiz-adv-x="722" d="M145 175q0 95 29 278.5t36 228.5t22.5 116.5t27.5 102.5t32.5 77t44 63.5t56.5 39.5q51 33 165 33t156 -46t42 -142q0 -92 -35 -217q-23 -74 -80 -122t-141 -48h-203v-52q-31 -184 -31 -255.5t30 -102.5t130 -31t219 27l-16 -105q-160 -35 -268 -35q-1 1 -3 1 q-110 0 -161.5 47t-51.5 142zM328 649h155q45 0 78 29t47 72q27 78 27 131q0 125 -90 125q-84 0 -129 -48q-31 -33 -46.5 -107.5t-25.5 -150.5z" />
<glyph unicode="f" horiz-adv-x="473" d="M-147 -410l14 91q80 0 128 17t76.5 64.5t41 95.5t26.5 142l144 928l20 61h-110l18 111h108v61l5 23q31 193 65 227q55 59 103 68q104 18 227 18l-14 -96q-160 0 -197 -32t-62 -185l-22 -84h184l-18 -111h-187v-61l-147 -928q-35 -197 -59.5 -238t-55 -76.5t-67.5 -54.5 q-92 -41 -221 -41z" />
<glyph unicode="g" horiz-adv-x="763" d="M127 -373l6 60l197 14q113 0 140.5 29.5t47.5 152.5q2 8 2 14.5t2 12.5l29 170l-172 -94q-131 0 -183.5 53t-52.5 160.5t9.5 216t35 236.5t63.5 230.5t100.5 171t140.5 68.5l221 -22q70 0 90 -5t20 -21.5t-188 -1212.5q-25 -156 -85.5 -213.5t-236.5 -57.5h-92 q-61 0 -77.5 5.5t-16.5 31.5zM268 273.5q0 -99.5 31 -139.5t102 -40l177 92l-5 52l113 716l19 52l-191 4q-78 0 -138.5 -156t-84 -318.5t-23.5 -262z" />
<glyph unicode="h" horiz-adv-x="808" d="M133 0l236 1499q98 0 106 -16q4 -8 4 -24.5t-51 -344.5h195q113 0 157.5 -48t44.5 -148.5t-129 -917.5q-100 0 -108 16q-4 8 -4 23q115 740 115 817q1 75 -21 113q-20 37 -74 37h-198v-52l-138 -860q-10 -70 -27.5 -82t-107.5 -12z" />
<glyph unicode="i" horiz-adv-x="385" d="M125 32.5q0 16.5 168 1067.5q72 0 92.5 -5t20.5 -22.5t-9 -66.5l-159 -1014q-101 0 -109 16q-4 8 -4 24.5zM311 1368q0 41 29 74t72 33q67 0 67 -76q0 -45 -28.5 -78t-69.5 -33q-70 0 -70 80z" />
<glyph unicode="j" horiz-adv-x="395" d="M-164 -410l14 91q80 0 128.5 17t77 65.5t39.5 94.5t28 142l174 1100q70 0 89.5 -5t19.5 -20.5t-88.5 -579t-96.5 -601t-25.5 -94t-44 -87t-67.5 -61.5q-78 -61 -248 -62zM309 1368q0 43 30 75t73 32q67 0 67 -76q0 -45 -28.5 -78t-65.5 -33q-76 0 -76 80z" />
<glyph unicode="k" horiz-adv-x="727" d="M141 40.5q0 16.5 228 1458.5q100 0 108 -16q4 -8 4 -24.5t-227 -1458.5q-101 0 -109 16q-4 8 -4 24.5zM395 600l326 500h125l-328 -500l191 -600h-134z" />
<glyph unicode="l" horiz-adv-x="378" d="M129 32.5q0 16.5 229 1466.5q100 0 109 -16q4 -8 4 -25.5t-229 -1465.5q-101 0 -109 16q-4 8 -4 24.5z" />
<glyph unicode="m" horiz-adv-x="1193" d="M90 40.5q0 16.5 6 53.5l160 1006q76 0 95.5 -4.5t19.5 -24.5q0 -4 -2 -18q-10 -47 -11 -58q49 47 111.5 83t93.5 36q80 0 137.5 -37t57.5 -100q170 137 241 137q125 0 171.5 -31.5t46.5 -125t-136 -957.5h-40t-28.5 1t-16.5 2t-11 4t-9 8t-5 12.5t-3 16.5t2 21.5 t60.5 391.5t59.5 442.5t-24 85t-64.5 21.5t-75.5 -18.5t-83 -51.5t-71 -45v-51l-131 -840h-44t-51.5 10t-13.5 34t13.5 111t37 237.5t34 214t18.5 126.5q14 92 14 150.5t-23.5 90.5t-80.5 32q-31 0 -110 -51.5t-101 -63.5v-51l-131 -840q-100 0 -109 16q-4 8 -4 24.5z" />
<glyph unicode="n" horiz-adv-x="798" d="M133 46.5q0 23.5 4 47.5l160 1006q76 0 95.5 -4t19.5 -21.5t-9 -75.5q23 12 68 45q96 70 133 70q123 0 169 -36t46 -136t-133 -942q-86 0 -98.5 11.5t-12.5 35t60.5 406.5t60.5 445.5t-22.5 85t-59 22.5t-72.5 -18.5t-87.5 -49.5t-75.5 -43v-51l-135 -844 q-86 0 -98.5 11.5t-12.5 35z" />
<glyph unicode="o" horiz-adv-x="765" d="M147 222q0 138 18.5 284.5t61.5 290t128 230.5t209 87t175.5 -48t51.5 -182t-19.5 -282.5t-62.5 -294t-128 -233.5t-209 -88t-174.5 49t-50.5 187zM272 240q0 -78 28 -112t97.5 -34t125 89t83.5 218q59 256 60 461q0 78 -28 111t-97.5 33t-125 -86t-83.5 -213 q-59 -250 -60 -467z" />
<glyph unicode="p" horiz-adv-x="819" d="M41 -368.5q0 16.5 6 53.5l225 1415l285 14q125 0 175 -57.5t50 -180t-17 -263t-53 -291t-109 -250t-167 -99.5q-39 0 -207 107l-77 -490q-98 0 -107 17q-4 8 -4 24.5zM238 186q164 -102 184 -102q74 0 131 151.5t79.5 312.5t22.5 274.5t-20.5 148.5t-106.5 35h-159v-52 l-113 -716z" />
<glyph unicode="q" horiz-adv-x="788" d="M152 199.5q0 107.5 9 216t34.5 236.5t63.5 230.5t100.5 171t140.5 68.5l221 -22q70 0 90 -5t20 -21.5t-231 -1483.5h-44t-51 10.5t-13 34t4 50.5l63 395l-172 -94q-131 0 -183 53t-52 160.5zM276 273.5q0 -99.5 31 -139.5t103 -40l176 92l-4 52l116 716l19 52l-195 4 q-78 0 -138 -156t-84 -318.5t-24 -262z" />
<glyph unicode="r" horiz-adv-x="550" d="M90 40.5q0 16.5 6 53.5l160 1006q76 0 95.5 -4.5t19.5 -24.5q0 -4 -4 -33l-9 -51q39 20 72 51q86 78 152 78q31 0 61 -16q-12 -72 -26.5 -83t-92.5 -11q-12 -10 -81.5 -56.5t-110.5 -83.5v-51l-129 -815q-100 0 -109 16q-4 8 -4 24.5z" />
<glyph unicode="s" horiz-adv-x="653" d="M106 8l13 109l223 -13h20q63 2 103.5 79t40.5 167q0 10 -1 31.5t-33 61.5t-77 77t-90 78q-106 96 -110 203q0 102 27.5 170.5t56.5 89.5q72 53 200 57l191 -22q-10 -90 -82 -95q-10 0 -31 5l-82 8q-162 -6 -162 -162q0 -100 160 -225q59 -45 109 -107q53 -66 53 -142.5 t-24.5 -162.5t-93 -156.5t-169.5 -72.5q-70 0 -144.5 10t-97.5 12z" />
<glyph unicode="t" horiz-adv-x="468" d="M152 139q0 80 38 328l74 471l17 51h-88l18 111h88l8 71l12 91q100 0 109 -17q4 -8 4 -24.5t-6 -53.5l-23 -67h189q-12 -76 -28.5 -93.5t-88.5 -17.5h-90v-51l-74 -471q-39 -252 -37 -287q0 -86 60 -86h139l-14 -94l-144 -10q-92 0 -127.5 34.5t-35.5 114.5z" />
<glyph unicode="u" horiz-adv-x="808" d="M135 184.5q0 102.5 43 370.5l88 545q72 0 92.5 -5t20.5 -22.5t-8 -66.5l-70 -447q-39 -256 -39 -321q0 -143 94 -144l222 133v52l131 821q72 0 92 -5t20 -22.5t-8 -66.5l-158 -1006q-74 0 -94 5t-20 30l12 86l-207 -135q-117 0 -164 48t-47 150.5z" />
<glyph unicode="v" horiz-adv-x="669" d="M215 1100q88 0 103.5 -12.5t15.5 -81.5l16 -842h27l317 936q105 -1 111 -13q2 -2 2 -6t-2 -8l-316 -909q-43 -123 -60 -143.5t-79 -20.5q-35 0 -57 25q-45 49 -49 139z" />
<glyph unicode="w" horiz-adv-x="1091" d="M215 1100q88 0 104.5 -12.5t16.5 -81.5l4 -842h16l260 762q23 63 85.5 63t77 -9t14.5 -54v-762h16l309 936h49q12 0 27 -2q23 -6 23 -25q0 -4 5 1t5 -1q0 -37 -307 -909q-43 -121 -60.5 -142.5t-71.5 -21.5q-37 0 -59 25q-47 51 -47 139l2 649h-14l-207 -649 q-39 -119 -55.5 -141.5t-63.5 -22.5q-35 0 -57 25q-45 49 -49 139z" />
<glyph unicode="x" horiz-adv-x="651" d="M45 20q0 4 37 74l258 504l-102 502q86 0 104 -11.5t35 -78.5l51 -299h25l180 389h43q53 0 53 -20.5t-4 -32.5q-31 -86 -240 -472l125 -575h-116l-91 463h-24l-232 -463q-61 0 -81.5 3t-20.5 17z" />
<glyph unicode="y" horiz-adv-x="649" d="M-10 -410l12 97q113 0 179.5 87t66.5 208q0 68 -33 1118q88 0 103.5 -12.5t17.5 -81.5l8 -863h27l301 957h49q41 0 47 -8.5t6 -18.5q-16 -121 -366 -1073q-8 -20 -28 -76.5t-28 -77t-29.5 -66.5t-39 -64.5t-48 -49.5t-63.5 -43q-88 -33 -182 -33z" />
<glyph unicode="z" horiz-adv-x="681" d="M82 0l16 109l514 880h-333q14 82 27 96.5t85 14.5h379l-18 -111l-533 -880h279q72 0 91 -6.5t19 -26t-8 -76.5h-518z" />
<glyph unicode="{" horiz-adv-x="491" d="M143 702l9 54l194 317l82 508h164q63 0 81.5 -5t18.5 -20.5t-8 -68.5h-164l-65 -414l-207 -344l98 -342l-67 -436h55q63 0 81.5 -5t18.5 -20.5t-8 -68.5h-164q-63 0 -81.5 5t-18.5 20.5t8 68.5l68 436z" />
<glyph unicode="|" horiz-adv-x="389" d="M74 -368.5q0 16.5 6 53.5l287 1814q100 0 108 -16q4 -8 4 -26.5t-6 -51.5l-287 -1815q-100 0 -108 17q-4 8 -4 24.5z" />
<glyph unicode="}" horiz-adv-x="489" d="M16 -143q12 70 27.5 82t97.5 12h56l67 436l209 342l-100 344l65 414h-164q12 72 27.5 83t97.5 11h164l-82 -508l97 -317l-9 -54l-196 -315l-68 -436q-10 -70 -26.5 -82t-98.5 -12h-164z" />
<glyph unicode="~" horiz-adv-x="772" d="M197 631l8 43q10 47 24.5 54t104.5 7l346 -22q41 0 68 6l26 -4l-8 -43q-10 -47 -24.5 -54.5t-104.5 -7.5l-350 21q-31 0 -64 -4z" />
<glyph unicode="&#xa1;" horiz-adv-x="331" d="M6 -365l201 1006q14 74 27.5 84t101.5 10l-178 -1005q-12 -68 -36 -81.5t-116 -13.5zM229 1008q0 39 34 70.5t73 31.5t61.5 -21.5t22.5 -56.5v-14q-6 -39 -38 -66.5t-69 -27.5t-60.5 22.5t-23.5 61.5z" />
<glyph unicode="&#xa2;" horiz-adv-x="704" d="M115 194.5q0 96.5 45 377t78 366.5q53 133 174 164q29 8 63 10l29 186q61 0 77.5 -5t16.5 -28.5t-6 -60.5l-17 -94l181 -10q-12 -72 -26.5 -83t-92.5 -11h-121q-119 0 -159 -88.5t-79.5 -343.5t-39.5 -330.5t30.5 -112.5t87.5 -37q119 0 242 21l-14 -95l-185 -30 l-37 -232q-61 0 -77.5 5.5t-16.5 27t6 62.5l23 135q-102 10 -142 60t-40 146.5z" />
<glyph unicode="&#xa3;" horiz-adv-x="780" d="M55 453l6 43q6 45 23.5 53t69 8t129.5 -4l-9 29l93 569q96 0 104 -16q4 -8 4 -24.5t-6 -53.5l-78 -490l-16 -26q80 -6 133 -6t82 6l26 -4l-6 -43q-6 -45 -23.5 -53.5t-74.5 -8.5t-152 4l7 -24l-39 -246l-17 -51h264q98 0 107 -17q4 -8 4 -26.5t-6 -51.5l-4 -22h-494 l68 422l18 26q-78 6 -116.5 6.5t-71.5 -3.5z" />
<glyph unicode="&#xa4;" horiz-adv-x="995" d="M244 474.5q0 17.5 67 76.5l82 70q-33 59 -33 120q0 100 76 181l-108 153q55 49 72.5 49t64.5 -55l59 -72q76 43 157 43t142 -49l174 133q39 -49 39 -61q-2 -27 -65 -78l-84 -70q23 -49 22 -102q0 -100 -71 -188l108 -154q-55 -49 -76.5 -48t-62.5 54l-57 72l2 2 q-78 -45 -157 -45t-136 39l-176 -133q-39 45 -39 62.5zM471 760q0 -70 39 -108t105.5 -38t125 54.5t58.5 120t-40 104.5t-102.5 39t-117.5 -47q-68 -55 -68 -125z" />
<glyph unicode="&#xa5;" horiz-adv-x="823" d="M158 184l6 43q6 45 23.5 53.5t71.5 8.5t140 -4l-6 20l8 45l13 25q-82 6 -124 6t-75 -4l-27 4l7 43q6 45 22 53t69.5 8t147.5 -4l-4 58l-186 561h30q66 0 81.5 -11.5t39.5 -82.5l109 -324h24l258 418h31q51 0 68.5 -3t17.5 -16v-2q0 -12 -147.5 -233t-204.5 -307l-23 -70 q80 -6 126 -6t77 6l25 -4l-6 -43q-6 -45 -23.5 -53.5t-73 -8.5t-137.5 5l4 -21l-8 -53l-10 -19q74 -6 121 -6t77 6l25 -4l-6 -43q-6 -45 -23.5 -53t-74 -8t-138.5 4l6 -23l-22 -145h-10q-68 0 -85.5 5t-17.5 28.5t6 60.5l11 64l12 20q-84 6 -124 6t-77 -4z" />
<glyph unicode="&#xa6;" horiz-adv-x="360" d="M66 -373.5q0 17.5 8 66.5l116 745q107 0 115 -20q4 -8 4 -20.5t-4 -53.5l-119 -745q-78 0 -99 5t-21 22.5zM233 687.5q0 17.5 9 66.5l116 745q107 0 115 -20q4 -8 4 -20.5t-4 -53.5l-119 -746q-78 0 -99.5 5.5t-21.5 23z" />
<glyph unicode="&#xa7;" horiz-adv-x="667" d="M76 41l14 94q27 -4 78 -16q102 -25 163.5 -25t95.5 16.5t52 57.5q29 55 45 160v10q0 68 -164 211q-59 53 -110 127t-51 141q0 188 104 254q-41 66 -41 123q0 10 8.5 60.5t18.5 85t41 77.5q55 80 254 80l190 -29q-16 -96 -92 -96q-10 0 -27 4l-82 13q-111 0 -149.5 -41 t-38.5 -121t166 -219q61 -53 113.5 -124t52.5 -139.5t-24.5 -151.5t-65.5 -132q26 -49 26 -96l-2 -25q-8 -47 -12 -72.5t-16.5 -69.5t-26.5 -69t-39 -56.5t-57 -47.5q-74 -39 -181 -39q-63 0 -140 24.5t-103 30.5zM322 825.5q0 -24.5 29.5 -65.5t104 -109.5t95.5 -91.5 q37 78 37 162q0 35 -25.5 70.5t-96.5 102.5t-89 85q-39 -25 -53 -123q-2 -6 -2 -30.5z" />
<glyph unicode="&#xa8;" horiz-adv-x="698" d="M324 1356q0 59 36.5 89t73.5 30t58.5 -22.5t21.5 -60.5t-34 -71t-71.5 -33t-61 22.5t-23.5 45.5zM616 1356q0 59 37 89t73 30t58.5 -22.5t22.5 -60.5t-34 -71t-71.5 -33t-61.5 22.5t-24 45.5z" />
<glyph unicode="&#xa9;" horiz-adv-x="1337" d="M170 500q0 174 89 336.5t250 267t365.5 104.5t342 -142t137.5 -359q0 -279 -203 -462.5t-483 -183.5q-229 0 -363.5 114t-134.5 325zM276 518q0 -172 109 -262t299 -90q236 0 399.5 147.5t163.5 378.5q0 178 -111.5 295t-293.5 117q-225 0 -395.5 -176t-170.5 -410z M543 476q0 79 12 151.5t39 144.5t79 116t122 44q10 0 170 -10q-8 -55 -18.5 -64.5t-59.5 -9.5h-88q-74 0 -119 -109.5t-45 -223.5t70 -114l180 21l-15 -86l-180 -27q-82 0 -114.5 44t-32.5 123z" />
<glyph unicode="&#xaa;" horiz-adv-x="555" d="M240 871.5q0 35.5 24 197.5q25 154 275 154l14 94q6 27 6 51q0 49 -80 49h-71q-43 0 -54.5 3t-11.5 14.5t4 48.5l148 18q88 0 120.5 -23.5t32.5 -74.5q0 -4 -10 -86l-80 -510q-51 0 -64.5 4t-13.5 17.5t4 50.5l-129 -82q-49 0 -68.5 3t-32.5 19.5t-13 52zM334 923.5 q0 -30.5 7 -34.5t32 -4l114 61l29 180q-78 0 -117 -10t-45 -45q-20 -117 -20 -147.5z" />
<glyph unicode="&#xab;" horiz-adv-x="661" d="M164 592l8 53l197 318h110l-211 -345l103 -342h-113zM395 592l8 53l197 318h111l-211 -345l102 -342h-113z" />
<glyph unicode="&#xac;" horiz-adv-x="729" d="M156 618l18 109h545l-27 -164q-14 -82 -27 -95t-83 -13l24 163h-450z" />
<glyph unicode="&#xad;" horiz-adv-x="688" d="M219 614l17 105h438l-17 -105h-438z" />
<glyph unicode="&#xae;" horiz-adv-x="1337" d="M170 500q0 57 8 104q41 252 235.5 428t430 176t373 -142t137.5 -359q0 -285 -206 -496t-480 -211q-223 0 -360.5 141.5t-137.5 358.5zM276 518q0 -180 113 -297t295 -117q229 0 396 175.5t167 412.5q0 178 -111.5 295t-305 117t-353.5 -146q-201 -182 -201 -440zM549 311 l98 631l148 10q94 0 135 -28.5t41 -95t-3 -99.5t-18 -74q-27 -78 -141 -77l92 -267q-63 0 -80.5 9.5t-32.5 44.5l-71 210h-29l-37 -204q-8 -45 -21.5 -52.5t-80.5 -7.5zM700 659h58q82 0 100.5 24t18.5 126q0 31 -20.5 44t-74.5 13h-57v-10l-16 -170z" />
<glyph unicode="&#xaf;" horiz-adv-x="688" d="M338 1370l18 105h439l-19 -105h-438z" />
<glyph unicode="&#xb0;" horiz-adv-x="712" d="M274 1188q0 137 103.5 223t209 86t172 -65.5t66.5 -174t-98 -201.5t-208.5 -93t-177.5 64.5t-67 160.5zM387 1215.5q0 -70.5 38 -107.5t103.5 -37t126 53.5t60.5 119t-41 105.5t-103.5 40t-115.5 -46q-68 -57 -68 -127.5z" />
<glyph unicode="&#xb1;" horiz-adv-x="571" d="M135 442l17 105h438l-17 -105h-438zM197 836l16 104h174v51l27 135h104l-26 -135l-17 -51h176l-16 -104h-176v-52l-27 -137h-104l26 137l17 52h-174z" />
<glyph unicode="&#xb2;" horiz-adv-x="552" d="M266 866l33 199q8 49 48 91t83 66.5t78 63.5t35 84t-62 45h-63h-16.5t-24.5 2q-18 2 -18.5 21.5t6.5 56.5l135 10q84 -2 115.5 -26.5t31.5 -65.5t-8 -89t-64.5 -97t-114 -90t-65.5 -78l-16 -103h205l-15 -90h-303z" />
<glyph unicode="&#xb3;" horiz-adv-x="524" d="M270 870l13 84q109 -10 138.5 -10t40.5 25.5t24.5 112.5t13.5 115t-9.5 36t-31.5 8h-72l113 168h-146l15 90h280l-137 -192q51 -14 69.5 -34t18.5 -52.5t-18.5 -152.5t-51 -167t-129.5 -47q-16 0 -131 16z" />
<glyph unicode="&#xb4;" horiz-adv-x="354" d="M227 1276l164 156q80 68 97.5 67.5t72.5 -63.5l-274 -234z" />
<glyph unicode="&#xb5;" horiz-adv-x="778" d="M59 -395l238 1499q101 -1 109 -17q4 -8 4 -24t-7 -53l-127 -791l-18 -45l193 -76q88 0 127 56q25 33 40 61.5t29 93.5q25 102 47 248l72 453q10 72 27.5 83t107.5 11l-86 -545q-47 -317 -86 -395q-51 -109 -104 -133q-88 -41 -191 -41l-192 80v-62l-49 -309 q-10 -70 -28 -82t-106 -12z" />
<glyph unicode="&#xb6;" horiz-adv-x="1044" d="M252 1188q0 133 101.5 220t211.5 89h654l-21 -129h-223l4 -39l-209 -1329h-129l209 1329l16 39h-202l4 -39l-209 -1329h-129l151 963q-98 2 -163.5 66.5t-65.5 158.5z" />
<glyph unicode="&#xb7;" horiz-adv-x="360" d="M182 590q0 59 36 89t73 30t59.5 -21.5t22.5 -60.5t-34 -72t-72 -33t-61.5 22.5t-23.5 45.5z" />
<glyph unicode="&#xb8;" horiz-adv-x="362" d="M-31 -279.5q0 21.5 4 56.5h179l36 223h95l-37 -223q-10 -61 -28 -77.5t-79 -16.5h-71q-82 0 -90.5 8t-8.5 29.5z" />
<glyph unicode="&#xb9;" horiz-adv-x="376" d="M299 1384l14 95l72 22h57q37 0 48.5 -4t11.5 -15.5t-8 -68.5l-88 -547h-101l86 541z" />
<glyph unicode="&#xba;" horiz-adv-x="577" d="M252 940q0 78 29.5 262t70.5 240.5t144.5 56.5t136.5 -24.5t33 -97t-29 -257t-75 -252t-144.5 -67.5t-132 30.5t-33.5 108.5zM348 979q0 -43 16.5 -58.5t64.5 -15.5t70.5 42t45 185.5t22.5 191.5t-15 59.5t-56 11.5t-58 -11q-37 -20 -63.5 -191t-26.5 -214z" />
<glyph unicode="&#xbb;" horiz-adv-x="661" d="M145 276l209 342l-100 345h111l94 -318l-8 -53l-193 -316h-113zM377 276l209 342l-101 345h111l94 -318l-8 -53l-193 -316h-112z" />
<glyph unicode="&#xbc;" horiz-adv-x="567" d="M57 154l305 473h99l-58 -365l-16 -31h57l-12 -77h-57l6 -37l-19 -117h-81l18 117l14 37h-256zM190 700l15 97h416l-15 -97h-416zM193 231h133l-4 31l32 207zM377 1384l14 95l74 22h57q37 0 48.5 -4t11.5 -15.5t-9 -68.5l-88 -547h-100l86 541z" />
<glyph unicode="&#xbd;" horiz-adv-x="618" d="M174 0l31 199q8 53 65.5 102t113.5 93t62 81q3 11 3 29q0 45 -62 45h-63h-16.5h-24.5q-18 4 -18.5 23.5t5.5 56.5l136 10q84 -2 115.5 -26.5t31.5 -65.5t-8 -89t-64.5 -97.5t-114 -90.5t-65.5 -77l-16 -103h204l-12 -90h-303zM231 700l15 97h416l-15 -97h-416zM414 1384 l14 95l72 22h57q37 0 48 -4t11 -15.5t-8 -68.5l-88 -547h-100l86 541z" />
<glyph unicode="&#xbe;" horiz-adv-x="577" d="M66 154l305 473h98l-57 -365l-17 -31h58l-13 -77h-57l6 -37l-18 -117h-82l18 117l15 37h-256zM190 700l15 97h416l-15 -97h-416zM201 231h133l-4 31l32 207zM270 870l13 84q109 -10 138.5 -10t40.5 25.5t24.5 112.5t13.5 115t-9.5 36t-31.5 8h-72l113 168h-146l15 90h280 l-137 -192q51 -16 69.5 -35t18.5 -51.5t-18.5 -152.5t-51 -167t-129.5 -47q-16 0 -131 16z" />
<glyph unicode="&#xbf;" horiz-adv-x="694" d="M51 -203q0 35 16.5 142.5t87 213t146.5 179.5q203 195 221 309l10 64h119l-10 -64q-23 -145 -166 -303q-59 -66 -119 -129q-143 -154 -161 -272q-8 -57 -9 -78q0 -66 44 -98.5t161 -32.5h82q59 0 76.5 -5.5t17.5 -21.5t-8 -70l-199 -20q-178 0 -243.5 45t-65.5 141z M543 1005.5q0 38.5 33.5 71.5t71.5 33t61.5 -22.5t23.5 -60.5t-33.5 -70.5t-72.5 -32.5t-61.5 21.5t-22.5 60z" />
<glyph unicode="&#xc0;" horiz-adv-x="890" d="M55 27v6q0 10 159 419.5t394 1022.5h131l101 -1475h-11q-92 0 -108 12.5t-21 81.5l-26 408h-312l-188 -502h-10q-68 0 -88.5 4t-20.5 23zM399 614h279l-27 52v546h-39l-186 -546zM434 1835l16 14q55 49 74.5 49t75.5 -67l114 -156l-84 -74z" />
<glyph unicode="&#xc1;" horiz-adv-x="890" d="M55 27v6q0 10 159 419.5t394 1022.5h131l101 -1475h-11q-92 0 -108 12.5t-21 81.5l-26 408h-312l-188 -502h-10q-68 0 -88.5 4t-20.5 23zM399 614h279l-27 52v546h-39l-186 -546zM662 1675l163 156q80 68 97.5 67.5t72.5 -63.5l-274 -233z" />
<glyph unicode="&#xc2;" horiz-adv-x="890" d="M55 27v6q0 10 159 419.5t394 1022.5h131l101 -1475h-11q-92 0 -108 12.5t-21 81.5l-26 408h-312l-188 -502h-10q-68 0 -88.5 4t-20.5 23zM399 614h279l-27 52v546h-39l-186 -546zM464 1663l19 112l231 123h54l196 -125l-18 -110l-219 135z" />
<glyph unicode="&#xc3;" horiz-adv-x="890" d="M55 27v6q0 10 159 419.5t394 1022.5h131l101 -1475h-11q-92 0 -108 12.5t-21 81.5l-26 408h-312l-188 -502h-10q-68 0 -88.5 4t-20.5 23zM399 614h279l-27 52v546h-39l-186 -546zM487 1630l9 43q10 47 25.5 54.5t105.5 7.5l237 -9q55 0 97 9l24 -4l-6 -43 q-6 -45 -23.5 -53.5t-107.5 -8.5l-238 6q-68 0 -96 -6z" />
<glyph unicode="&#xc4;" horiz-adv-x="890" d="M55 27v6q0 10 159 419.5t394 1022.5h131l101 -1475h-11q-92 0 -108 12.5t-21 81.5l-26 408h-312l-188 -502h-10q-68 0 -88.5 4t-20.5 23zM399 614h279l-27 52v546h-39l-186 -546zM475 1753q0 59 37 89t74 30t58.5 -22.5t21.5 -60.5t-34 -70.5t-72 -32.5t-61.5 22.5 t-23.5 44.5zM768 1753q0 59 37 89t72.5 30t58 -22.5t22.5 -60.5t-33.5 -70.5t-71.5 -32.5t-61.5 22.5t-23.5 44.5z" />
<glyph unicode="&#xc5;" horiz-adv-x="890" d="M55 27v6q0 10 159 419.5t394 1022.5h131l101 -1475h-11q-92 0 -108 12.5t-21 81.5l-26 408h-312l-188 -502h-10q-68 0 -88.5 4t-20.5 23zM399 614h279l-27 52v546h-39l-186 -546zM533 1687.5q0 67.5 60.5 126t130 58.5t111.5 -40t42 -108.5t-61.5 -127t-131 -58.5 t-110.5 41t-41 108.5zM619 1697q0 -34 20.5 -54.5t56 -20.5t64.5 30t29 63.5t-19.5 53t-53.5 19.5t-65.5 -28.5t-31.5 -62.5z" />
<glyph unicode="&#xc6;" horiz-adv-x="1288" d="M104 27q-2 12 21 67l512 1381h784l-18 -109h-432v-51l-64 -408l-16 -51h403l-18 -117h-404v-51l-84 -520l-14 -51h453l-19 -117h-579l69 451l17 51h-303l-189 -502h-10q-68 0 -88.5 4t-20.5 23zM449 614h284v52l111 700h-137l-232 -700z" />
<glyph unicode="&#xc7;" horiz-adv-x="772" d="M201 305q0 139 12 283.5t48 318.5t90.5 306.5t143.5 210t189 77.5q16 0 35 -2l199 -41q-15 -90 -93 -90l-24 2l-101 12q-10 2 -20 2q-84 0 -155.5 -110.5t-110.5 -290.5q-80 -356 -80 -627q0 -117 38 -178t130 -61q47 0 113.5 9t95.5 11l-19 -117q-29 -4 -81 -15t-83 -15 l-34 -213q-10 -61 -27.5 -77.5t-79.5 -16.5h-72q-82 0 -90 8t-8 29.5t4 56.5h178l35 211q-129 12 -181 95t-52 222z" />
<glyph unicode="&#xc8;" horiz-adv-x="788" d="M154 0l233 1475h539l-19 -109h-411v-51l-64 -408l-16 -51h383l-19 -117h-383v-51l-84 -520l-14 -51h432l-18 -117h-559zM551 1835l16 14q55 49 75 49t75 -67l114 -156l-83 -73z" />
<glyph unicode="&#xc9;" horiz-adv-x="788" d="M154 0l233 1475h539l-19 -109h-411v-51l-64 -408l-16 -51h383l-19 -117h-383v-51l-84 -520l-14 -51h432l-18 -117h-559zM643 1675l164 156q80 68 97.5 67.5t72.5 -63.5l-275 -233z" />
<glyph unicode="&#xca;" horiz-adv-x="788" d="M154 0l233 1475h539l-19 -109h-411v-51l-64 -408l-16 -51h383l-19 -117h-383v-51l-84 -520l-14 -51h432l-18 -117h-559zM438 1663l19 113l231 122h53l197 -124l-18 -111l-220 135z" />
<glyph unicode="&#xcb;" horiz-adv-x="788" d="M154 0l233 1475h539l-19 -109h-411v-51l-64 -408l-16 -51h383l-19 -117h-383v-51l-84 -520l-14 -51h432l-18 -117h-559zM477 1755q0 59 37 89t73 30t58.5 -21.5t22.5 -60.5t-34 -71.5t-72 -32.5t-61.5 22.5t-23.5 44.5zM770 1755q0 59 37 89t74 30t58.5 -21.5t21.5 -60.5 t-34 -71.5t-72 -32.5t-61.5 22.5t-23.5 44.5z" />
<glyph unicode="&#xcc;" horiz-adv-x="436" d="M162 40.5q0 16.5 225 1434.5h10q96 0 105 -17q4 -8 4 -24.5t-223 -1433.5h-11q-98 0 -106 16q-4 8 -4 24.5zM322 1835l16 14q55 49 74.5 49t75.5 -67l114 -156l-84 -74z" />
<glyph unicode="&#xcd;" horiz-adv-x="436" d="M162 40.5q0 16.5 225 1434.5h10q96 0 105 -17q4 -8 4 -24.5t-223 -1433.5h-11q-98 0 -106 16q-4 8 -4 24.5zM440 1675l164 156q80 68 97.5 67.5t72.5 -63.5l-274 -233z" />
<glyph unicode="&#xce;" horiz-adv-x="436" d="M162 40.5q0 16.5 225 1434.5h10q96 0 105 -17q4 -8 4 -24.5t-223 -1433.5h-11q-98 0 -106 16q-4 8 -4 24.5zM244 1663l18 113l232 122h53l196 -124l-18 -111l-219 135z" />
<glyph unicode="&#xcf;" horiz-adv-x="436" d="M162 40.5q0 16.5 225 1434.5h10q96 0 105 -17q4 -8 4 -24.5t-223 -1433.5h-11q-98 0 -106 16q-4 8 -4 24.5zM258 1755q0 59 37 89t74 30t58.5 -21.5t21.5 -60.5t-34 -71.5t-72 -32.5t-61.5 22.5t-23.5 44.5zM551 1755q0 59 37 89t72.5 30t58 -21.5t22.5 -60.5 t-33.5 -71.5t-71.5 -32.5t-61.5 22.5t-23.5 44.5z" />
<glyph unicode="&#xd0;" horiz-adv-x="948" d="M123 0l233 1479l373 20q154 0 217.5 -83t63.5 -215t-34 -350t-44 -278.5t-31.5 -157t-42 -146.5t-56.5 -113.5t-77 -94.5q-104 -76 -236 -75zM256 102h252q84 0 135 54q61 61 85 127.5t35 105.5t25.5 112.5t21.5 118t37 226.5t30 299t-38 177t-128 60h-260l6 -79 l-60 -373l-20 -70h262l-16 -104h-265v-78l-82 -518z" />
<glyph unicode="&#xd1;" horiz-adv-x="931" d="M143 0l234 1475h10q88 0 105.5 -12.5t29.5 -82.5l180 -995v-55h11l182 1145h8q96 0 105 -17q4 -8 4 -24.5t-224 -1433.5h-8q-88 0 -106.5 12.5t-32.5 81.5l-184 973v55h-11l-161 -1028q-10 -70 -27.5 -82t-105.5 -12h-9zM487 1630l9 43q10 47 25.5 54.5t105.5 7.5l237 -9 q55 0 97 9l24 -4l-6 -43q-6 -45 -23.5 -53.5t-107.5 -8.5l-238 6q-68 0 -96 -6z" />
<glyph unicode="&#xd2;" horiz-adv-x="985" d="M209 348.5q0 188.5 28.5 382t87 370.5t164 287.5t249 110.5t208 -83t64.5 -270.5t-30 -383t-88 -374.5t-162.5 -290.5t-248 -111.5t-208 87t-64.5 275.5zM348 371q0 -135 37 -202t124 -67t158.5 110t113.5 273.5t64.5 329.5t22.5 301t-36.5 200.5t-121.5 65.5 t-158 -109.5t-116 -273.5q-88 -336 -88 -628zM588 1835l16 14q55 49 74.5 49t75.5 -67l114 -156l-84 -73z" />
<glyph unicode="&#xd3;" horiz-adv-x="985" d="M209 348.5q0 188.5 28.5 382t87 370.5t164 287.5t249 110.5t208 -83t64.5 -270.5t-30 -383t-88 -374.5t-162.5 -290.5t-248 -111.5t-208 87t-64.5 275.5zM348 371q0 -135 37 -202t124 -67t158.5 110t113.5 273.5t64.5 329.5t22.5 301t-36.5 200.5t-121.5 65.5 t-158 -109.5t-116 -273.5q-88 -336 -88 -628zM657 1675l164 156q80 68 97.5 67.5t72.5 -63.5l-274 -233z" />
<glyph unicode="&#xd4;" horiz-adv-x="985" d="M209 348.5q0 188.5 28.5 382t87 370.5t164 287.5t249 110.5t208 -83t64.5 -270.5t-30 -383t-88 -374.5t-162.5 -290.5t-248 -111.5t-208 87t-64.5 275.5zM348 371q0 -135 37 -202t124 -67t158.5 110t113.5 273.5t64.5 329.5t22.5 301t-36.5 200.5t-121.5 65.5 t-158 -109.5t-116 -273.5q-88 -336 -88 -628zM543 1663l18 113l232 122h53l196 -124l-18 -111l-219 135z" />
<glyph unicode="&#xd5;" horiz-adv-x="985" d="M209 348.5q0 188.5 28.5 382t87 370.5t164 287.5t249 110.5t208 -83t64.5 -270.5t-30 -383t-88 -374.5t-162.5 -290.5t-248 -111.5t-208 87t-64.5 275.5zM348 371q0 -135 37 -202t124 -67t158.5 110t113.5 273.5t64.5 329.5t22.5 301t-36.5 200.5t-121.5 65.5 t-158 -109.5t-116 -273.5q-88 -336 -88 -628zM534 1745l8 43q10 47 25 54.5t107 7.5l237 -9q55 0 96 9l25 -5l-6 -43q-6 -45 -23.5 -53t-107.5 -8l-238 6q-68 0 -96 -6z" />
<glyph unicode="&#xd6;" horiz-adv-x="985" d="M209 348.5q0 188.5 28.5 382t87 370.5t164 287.5t249 110.5t208 -83t64.5 -270.5t-30 -383t-88 -374.5t-162.5 -290.5t-248 -111.5t-208 87t-64.5 275.5zM348 371q0 -135 37 -202t124 -67t158.5 110t113.5 273.5t64.5 329.5t22.5 301t-36.5 200.5t-121.5 65.5 t-158 -109.5t-116 -273.5q-88 -336 -88 -628zM532 1755q0 59 37 89t74 30t58.5 -21.5t21.5 -60.5t-34 -71.5t-71.5 -32.5t-61.5 22.5t-24 44.5zM825 1755q0 59 37 89t73 30t58.5 -21.5t22.5 -60.5t-34 -71.5t-72 -32.5t-61.5 22.5t-23.5 44.5z" />
<glyph unicode="&#xd7;" horiz-adv-x="555" d="M154 539l137 139l-37 35l-76 114l74 74l76 -115l24 -47l140 140l63 -86l-139 -140l35 -35l79 -116l-75 -74l-78 117l-25 47l-137 -137z" />
<glyph unicode="&#xd8;" horiz-adv-x="974" d="M133 -102l125 223q-37 80 -37 229.5t41 399.5q66 412 166 580.5t313 168.5q55 0 99 -12l90 155h139l-121 -215q74 -82 74 -276q0 -131 -41 -401q-66 -414 -166 -589t-313 -175q-98 0 -160 37l-70 -125h-139zM354 385q0 -283 166 -283q131 0 206 159t118 430.5t43 410.5 q0 281 -164 280q-129 0 -205 -154.5t-120 -434t-44 -408.5z" />
<glyph unicode="&#xd9;" horiz-adv-x="958" d="M207 233q0 70 26.5 249.5t155.5 992.5h14q96 0 105 -17q4 -8 4 -24.5t-86 -561t-85 -618.5t35 -113t127 -39t142 76q72 111 154 576q35 201 116 721h15q96 0 104 -17q4 -8 4 -24.5t-6 -53.5q-145 -936 -231 -1165t-324 -229q-152 0 -211 59t-59 188zM594 1835l16 14 q55 49 75 49t75 -67l114 -156l-83 -73z" />
<glyph unicode="&#xda;" horiz-adv-x="958" d="M207 233q0 70 26.5 249.5t155.5 992.5h14q96 0 105 -17q4 -8 4 -24.5t-86 -561t-85 -618.5t35 -113t127 -39t142 76q72 111 154 576q35 201 116 721h15q96 0 104 -17q4 -8 4 -24.5t-6 -53.5q-145 -936 -231 -1165t-324 -229q-152 0 -211 59t-59 188zM664 1675l163 156 q80 68 97.5 67.5t72.5 -63.5l-274 -233z" />
<glyph unicode="&#xdb;" horiz-adv-x="958" d="M207 233q0 70 26.5 249.5t155.5 992.5h14q96 0 105 -17q4 -8 4 -24.5t-86 -561t-85 -618.5t35 -113t127 -39t142 76q72 111 154 576q35 201 116 721h15q96 0 104 -17q4 -8 4 -24.5t-6 -53.5q-145 -936 -231 -1165t-324 -229q-152 0 -211 59t-59 188zM512 1663l19 112 l231 123h54l196 -125l-18 -110l-219 135z" />
<glyph unicode="&#xdc;" horiz-adv-x="958" d="M207 233q0 70 26.5 249.5t155.5 992.5h14q96 0 105 -17q4 -8 4 -24.5t-86 -561t-85 -618.5t35 -113t127 -39t142 76q72 111 154 576q35 201 116 721h15q96 0 104 -17q4 -8 4 -24.5t-6 -53.5q-145 -936 -231 -1165t-324 -229q-152 0 -211 59t-59 188zM530 1755q0 59 37 89 t73 30t58.5 -21.5t22.5 -60.5t-34 -71.5t-71.5 -32.5t-61.5 22.5t-24 44.5zM823 1755q0 59 37 89t74 30t58.5 -21.5t21.5 -60.5t-34 -71.5t-72 -32.5t-61.5 22.5t-23.5 44.5z" />
<glyph unicode="&#xdd;" horiz-adv-x="768" d="M285 1475h30q78 0 93.5 -11.5t27.5 -83.5l88 -495h11l301 590h55q55 0 55 -23q0 -41 -383 -741l-110 -711h-11q-98 0 -106 16q-4 8 -4 24.5t102 670.5zM628 1675l164 156q80 68 97.5 67.5t72.5 -63.5l-274 -234z" />
<glyph unicode="&#xde;" horiz-adv-x="808" d="M66 -368.5q0 16.5 6 53.5l274 1728q10 70 26.5 82t106.5 12l-51 -325l213 55q127 0 178 -56.5t51 -163t-28.5 -286.5t-36.5 -230t-24.5 -127t-30 -116t-36 -92t-47 -79t-59.5 -54q-61 -47 -174 -47l-180 94l-78 -490q-98 1 -106 17q-4 8 -4 24.5zM262 186l187 -92 q121 0 180 170q33 96 74.5 351t41.5 341t-29.5 129t-101.5 43l-208 -51v-51l-125 -788z" />
<glyph unicode="&#xdf;" horiz-adv-x="1073" d="M121 0l188 1182q10 59 13.5 80.5t12.5 63.5t14 53.5t18.5 38t23.5 31.5t32.5 20.5t43.5 15.5l127 12h197q143 0 206 -72q25 -26 25 -65l-2 -21q-20 -129 -36.5 -198.5t-43.5 -101t-48.5 -38t-72.5 -6.5q-113 0 -112 -176q0 -45 52 -102.5t113.5 -104.5t113.5 -119.5 t52 -146.5q0 -23 -5 -52.5t-9 -54t-16.5 -64.5t-25.5 -62.5t-37.5 -50t-55.5 -42.5q-78 -35 -182 -34l-250 14l16 109h256q98 0 129 59q23 45 37 137l4 23v14q0 43 -49 99.5t-109.5 103.5t-109.5 115.5t-49 136.5q0 123 55 216t178 93q20 0 31 8q25 16 55 199v12 q0 66 -139 66h-96q-147 0 -176 -26t-54 -183l-170 -1063q-14 -88 -33.5 -103.5t-111.5 -15.5z" />
<glyph unicode="&#xe0;" horiz-adv-x="720" d="M59 191.5q0 115.5 16.5 259t52.5 303t108.5 266t169.5 106.5q33 0 70.5 -13t91 -29.5t78 -24.5t50.5 -19q43 -20 43 -47q0 -8 -153 -993q-72 0 -94.5 7t-18.5 36l19 135l-238 -192q-121 0 -158 45t-37 160.5zM184 241q0 -87 14.5 -111t75.5 -24l242 177v51l92 567l17 51 q-176 58 -207 58q-78 0 -135.5 -172t-78 -341t-20.5 -256zM455 1448l16 14q55 49 74.5 49t75.5 -67l114 -156l-84 -74z" />
<glyph unicode="&#xe1;" horiz-adv-x="720" d="M59 191.5q0 115.5 16.5 259t52.5 303t108.5 266t169.5 106.5q33 0 70.5 -13t91 -29.5t78 -24.5t50.5 -19q43 -20 43 -47q0 -8 -153 -993q-72 0 -94.5 7t-18.5 36l19 135l-238 -192q-121 0 -158 45t-37 160.5zM184 241q0 -87 14.5 -111t75.5 -24l242 177v51l92 567l17 51 q-176 58 -207 58q-78 0 -135.5 -172t-78 -341t-20.5 -256zM487 1288l164 156q80 68 97.5 67.5t72.5 -63.5l-274 -234z" />
<glyph unicode="&#xe2;" horiz-adv-x="720" d="M59 191.5q0 115.5 16.5 259t52.5 303t108.5 266t169.5 106.5q33 0 70.5 -13t91 -29.5t78 -24.5t50.5 -19q43 -20 43 -47q0 -8 -153 -993q-72 0 -94.5 7t-18.5 36l19 135l-238 -192q-121 0 -158 45t-37 160.5zM184 241q0 -87 14.5 -111t75.5 -24l242 177v51l92 567l17 51 q-176 58 -207 58q-78 0 -135.5 -172t-78 -341t-20.5 -256zM305 1284l19 113l231 123h53l197 -125l-19 -111l-219 135z" />
<glyph unicode="&#xe3;" horiz-adv-x="720" d="M59 191.5q0 115.5 16.5 259t52.5 303t108.5 266t169.5 106.5q33 0 70.5 -13t91 -29.5t78 -24.5t50.5 -19q43 -20 43 -47q0 -8 -153 -993q-72 0 -94.5 7t-18.5 36l19 135l-238 -192q-121 0 -158 45t-37 160.5zM184 241q0 -87 14.5 -111t75.5 -24l242 177v51l92 567l17 51 q-176 58 -207 58q-78 0 -135.5 -172t-78 -341t-20.5 -256zM301 1313l8 43q10 47 24.5 54t106.5 7l238 -8q55 0 96 8l25 -4l-6 -43q-6 -45 -23.5 -53t-107.5 -8l-238 6q-68 0 -96 -6z" />
<glyph unicode="&#xe4;" horiz-adv-x="720" d="M59 191.5q0 115.5 16.5 259t52.5 303t108.5 266t169.5 106.5q33 0 70.5 -13t91 -29.5t78 -24.5t50.5 -19q43 -20 43 -47q0 -8 -153 -993q-72 0 -94.5 7t-18.5 36l19 135l-238 -192q-121 0 -158 45t-37 160.5zM184 241q0 -87 14.5 -111t75.5 -24l242 177v51l92 567l17 51 q-176 58 -207 58q-78 0 -135.5 -172t-78 -341t-20.5 -256zM356 1337q0 59 37 89t74 30t58.5 -21.5t21.5 -60.5t-34 -71.5t-72 -32.5t-61.5 22.5t-23.5 44.5zM649 1337q0 59 37 89t73 30t58.5 -21.5t22.5 -60.5t-34 -71.5t-72 -32.5t-61.5 22.5t-23.5 44.5z" />
<glyph unicode="&#xe5;" horiz-adv-x="720" d="M59 191.5q0 115.5 16.5 259t52.5 303t108.5 266t169.5 106.5q33 0 70.5 -13t91 -29.5t78 -24.5t50.5 -19q43 -20 43 -47q0 -8 -153 -993q-72 0 -94.5 7t-18.5 36l19 135l-238 -192q-121 0 -158 45t-37 160.5zM184 241q0 -87 14.5 -111t75.5 -24l242 177v51l92 567l17 51 q-176 58 -207 58q-78 0 -135.5 -172t-78 -341t-20.5 -256zM375 1349.5q0 67.5 60.5 126t130 58.5t111.5 -40t42 -108.5t-61.5 -127t-131 -58.5t-110.5 41t-41 108.5zM461 1359q0 -34 20.5 -54.5t56 -20.5t64.5 29.5t29 63.5t-19.5 53.5t-53.5 19.5t-65.5 -28.5t-31.5 -62.5z " />
<glyph unicode="&#xe6;" horiz-adv-x="1204" d="M152 114.5q0 71.5 45 346.5q35 219 413 219h8v51l19 119q2 14 9 47t7 47q0 61 -100 62q-133 -18 -139 -19q-61 0 -62 62q0 6 4 30l215 35q143 0 185 -63q76 63 166 63q131 0 180 -44t49 -123t-27 -261l-8 -121h-409v-51q-37 -236 -37 -299t20.5 -92t69.5 -29 q111 0 289 27l-17 -101q-182 -35 -283.5 -34.5t-132 28t-49.5 103.5l-274 -131q-80 0 -110.5 28.5t-30.5 100zM268 145q0 -51 41 -51l223 96l52 324l16 51h-8q-123 0 -194.5 -17.5t-80.5 -70.5q-10 -66 -22 -145q-27 -156 -27 -187zM737 676h275l4 92q10 76 10 129 q0 109 -123 109q-59 0 -77.5 -25t-28 -39t-17.5 -57q-8 -45 -26 -158z" />
<glyph unicode="&#xe7;" horiz-adv-x="686" d="M90 -279.5q0 21.5 4 56.5h178l35 213q-88 8 -125 57t-37 155.5t15.5 248t50.5 301t105.5 267t164.5 107.5q20 0 232 -39q-16 -92 -86 -92l-135 21q-72 0 -126.5 -170t-75 -339t-20.5 -257t26 -122t89 -34l180 21l-14 -95l-150 -26l-34 -217q-10 -61 -27.5 -77.5 t-79.5 -16.5h-72q-82 0 -90 8t-8 29.5z" />
<glyph unicode="&#xe8;" horiz-adv-x="722" d="M145 175q0 95 29 278.5t36 228.5t22.5 116.5t27.5 102.5t32.5 77t44 63.5t56.5 39.5q51 33 165 33t156 -46t42 -142q0 -92 -35 -217q-23 -74 -80 -122t-141 -48h-203v-52q-31 -184 -31 -255.5t30 -102.5t130 -31t219 27l-16 -105q-162 -35 -271.5 -34.5t-161 47.5 t-51.5 142zM328 649h155q45 0 78 29t47 72q27 78 27 131q0 125 -90 125q-84 0 -129 -48q-31 -33 -46.5 -107.5t-25.5 -150.5zM426 1452l16 14q55 49 75 49.5t75 -67.5l115 -156l-84 -73z" />
<glyph unicode="&#xe9;" horiz-adv-x="722" d="M145 175q0 95 29 278.5t36 228.5t22.5 116.5t27.5 102.5t32.5 77t44 63.5t56.5 39.5q51 33 165 33t156 -46t42 -142q0 -92 -35 -217q-23 -74 -80 -122t-141 -48h-203v-52q-31 -184 -31 -255.5t30 -102.5t130 -31t219 27l-16 -105q-162 -35 -271.5 -34.5t-161 47.5 t-51.5 142zM328 649h155q45 0 78 29t47 72q27 78 27 131q0 125 -90 125q-84 0 -129 -48q-31 -33 -46.5 -107.5t-25.5 -150.5zM495 1292l164 156q80 68 97.5 67.5t72.5 -63.5l-274 -234z" />
<glyph unicode="&#xea;" horiz-adv-x="722" d="M145 175q0 95 29 278.5t36 228.5t22.5 116.5t27.5 102.5t32.5 77t44 63.5t56.5 39.5q51 33 165 33t156 -46t42 -142q0 -92 -35 -217q-23 -74 -80 -122t-141 -48h-203v-52q-31 -184 -31 -255.5t30 -102.5t130 -31t219 27l-16 -105q-162 -35 -271.5 -34.5t-161 47.5 t-51.5 142zM328 649h155q45 0 78 29t47 72q27 78 27 131q0 125 -90 125q-84 0 -129 -48q-31 -33 -46.5 -107.5t-25.5 -150.5zM333 1289l19 112l231 123h54l196 -125l-18 -110l-219 135z" />
<glyph unicode="&#xeb;" horiz-adv-x="722" d="M145 175q0 95 29 278.5t36 228.5t22.5 116.5t27.5 102.5t32.5 77t44 63.5t56.5 39.5q51 33 165 33t156 -46t42 -142q0 -92 -35 -217q-23 -74 -80 -122t-141 -48h-203v-52q-31 -184 -31 -255.5t30 -102.5t130 -31t219 27l-16 -105q-162 -35 -271.5 -34.5t-161 47.5 t-51.5 142zM328 649h155q45 0 78 29t47 72q27 78 27 131q0 125 -90 125q-84 0 -129 -48q-31 -33 -46.5 -107.5t-25.5 -150.5zM349 1342q0 59 36.5 89t73.5 30t58.5 -22.5t21.5 -60.5t-34 -71t-71.5 -33t-61 22.5t-23.5 45.5zM641 1342q0 59 37 89t73 30t58.5 -22.5 t22.5 -60.5t-34 -71t-71.5 -33t-61.5 22.5t-24 45.5z" />
<glyph unicode="&#xec;" horiz-adv-x="432" d="M154 32.5q0 16.5 6 53.5l162 1014q71 0 91.5 -5t20.5 -22.5t-8 -66.5l-160 -1014q-100 0 -108 16q-4 8 -4 24.5zM244 1456l16 14q55 49 74.5 49.5t75.5 -67.5l114 -156l-84 -73z" />
<glyph unicode="&#xed;" horiz-adv-x="450" d="M160 32.5q0 16.5 6 53.5l162 1014q71 0 91.5 -5t20.5 -22.5t-8 -66.5l-160 -1014q-100 0 -108 16q-4 8 -4 24.5zM326 1292l163 156q80 68 97.5 67.5t72.5 -63.5l-274 -233z" />
<glyph unicode="&#xee;" horiz-adv-x="503" d="M190.5 32.5q-0.5 16.5 6.5 53.5l161 1014q72 0 92.5 -5t20.5 -22.5t-8 -66.5l-160 -1014q-100 0 -108 16q-4 8 -4.5 24.5zM213 1280l18 113l232 123h53l197 -125l-19 -111l-219 135z" />
<glyph unicode="&#xef;" horiz-adv-x="532" d="M227 32.5q0 16.5 6 53.5l162 1014q72 0 92.5 -5t20.5 -22.5t-8 -66.5l-160 -1014q-100 0 -109 16q-4 8 -4 24.5zM254 1341q0 59 37 89t73.5 30t58 -21.5t21.5 -60.5t-33.5 -71.5t-71.5 -32.5t-61.5 22.5t-23.5 44.5zM547 1341q0 59 37 89t72.5 30t58 -21.5t22.5 -60.5 t-33.5 -71.5t-71.5 -32.5t-61.5 22.5t-23.5 44.5z" />
<glyph unicode="&#xf0;" horiz-adv-x="770" d="M102 176q0 94 27 256t33 201t18.5 100.5t21.5 85t24.5 62.5t32.5 52t42 32.5t55 25.5q96 14 162 15l154 -70q6 96 6 205q0 242 -146 241l19 117q147 0 208.5 -92t61.5 -253t-39 -409.5t-49 -308t-25.5 -134.5t-28.5 -108.5t-35.5 -76.5t-46.5 -58.5t-60 -33.5 q-51 -25 -187.5 -25t-192 41t-55.5 135zM236 227.5q0 -65.5 30.5 -92t110.5 -26.5q129 0 166 79.5t90 419.5l31 223l-162 66q-121 0 -156 -64.5t-72.5 -302t-37.5 -303z" />
<glyph unicode="&#xf1;" horiz-adv-x="798" d="M133 46.5q0 23.5 4 47.5l160 1006q76 0 95.5 -4t19.5 -21.5t-9 -75.5q23 12 68 45q96 70 133 70q123 0 169 -36t46 -136t-133 -942q-86 0 -98.5 11.5t-12.5 35t60.5 406.5t60.5 445.5t-22.5 85t-59 22.5t-72.5 -18.5t-87.5 -49.5t-75.5 -43v-51l-135 -844 q-86 0 -98.5 11.5t-12.5 35zM379 1313l8 43q10 47 25 54.5t107 7.5l237 -9q55 0 96 9l25 -5l-6 -43q-6 -45 -23.5 -53t-107.5 -8l-238 6q-68 0 -96 -6z" />
<glyph unicode="&#xf2;" horiz-adv-x="765" d="M147 222q0 138 18.5 284.5t61.5 290t128 230.5t209 87t175.5 -48t51.5 -182t-19.5 -282.5t-62.5 -294t-128 -233.5t-209 -88t-174.5 49t-50.5 187zM272 240q0 -78 28 -112t97.5 -34t125 89t83.5 218q59 256 60 461q0 78 -28 111t-97.5 33t-125 -86t-83.5 -213 q-59 -250 -60 -467zM461 1460l16 15q55 49 74.5 49t75.5 -68l114 -156l-84 -73z" />
<glyph unicode="&#xf3;" horiz-adv-x="765" d="M147 222q0 138 18.5 284.5t61.5 290t128 230.5t209 87t175.5 -48t51.5 -182t-19.5 -282.5t-62.5 -294t-128 -233.5t-209 -88t-174.5 49t-50.5 187zM272 240q0 -78 28 -112t97.5 -34t125 89t83.5 218q59 256 60 461q0 78 -28 111t-97.5 33t-125 -86t-83.5 -213 q-59 -250 -60 -467zM498 1300l164 156q80 68 97 67.5t72 -63.5l-274 -233z" />
<glyph unicode="&#xf4;" horiz-adv-x="765" d="M147 222q0 138 18.5 284.5t61.5 290t128 230.5t209 87t175.5 -48t51.5 -182t-19.5 -282.5t-62.5 -294t-128 -233.5t-209 -88t-174.5 49t-50.5 187zM272 240q0 -78 28 -112t97.5 -34t125 89t83.5 218q59 256 60 461q0 78 -28 111t-97.5 33t-125 -86t-83.5 -213 q-59 -250 -60 -467zM344 1289l19 112l231 123h54l196 -125l-18 -110l-219 135z" />
<glyph unicode="&#xf5;" horiz-adv-x="765" d="M147 222q0 138 18.5 284.5t61.5 290t128 230.5t209 87t175.5 -48t51.5 -182t-19.5 -282.5t-62.5 -294t-128 -233.5t-209 -88t-174.5 49t-50.5 187zM272 240q0 -78 28 -112t97.5 -34t125 89t83.5 218q59 256 60 461q0 78 -28 111t-97.5 33t-125 -86t-83.5 -213 q-59 -250 -60 -467zM367 1325l6 43q6 45 23.5 53.5t91 8.5t163.5 -11.5t123 -11.5t62 6l24 -4l-6 -43q-6 -45 -23.5 -53t-91 -8t-165 10t-120 10t-61.5 -4z" />
<glyph unicode="&#xf6;" horiz-adv-x="765" d="M147 222q0 138 18.5 284.5t61.5 290t128 230.5t209 87t175.5 -48t51.5 -182t-19.5 -282.5t-62.5 -294t-128 -233.5t-209 -88t-174.5 49t-50.5 187zM272 240q0 -78 28 -112t97.5 -34t125 89t83.5 218q59 256 60 461q0 78 -28 111t-97.5 33t-125 -86t-83.5 -213 q-59 -250 -60 -467zM358 1337q0 59 37 89t73 30t58.5 -21.5t22.5 -60.5t-34 -71.5t-71.5 -32.5t-61.5 22.5t-24 44.5zM651 1337q0 59 37 89t74 30t58.5 -21.5t21.5 -60.5t-34 -71.5t-72 -32.5t-61.5 22.5t-23.5 44.5z" />
<glyph unicode="&#xf7;" horiz-adv-x="563" d="M150 553l16 104h438l-16 -104h-438zM186 83q0 38 34 70.5t73 32.5t61.5 -21.5t22.5 -60t-34 -71.5t-72 -33t-61.5 22.5t-23.5 60.5zM344 996q0 38 35 71t74 33t60.5 -21.5t21.5 -60.5t-34 -72t-72 -33t-61.5 22.5t-23.5 60.5z" />
<glyph unicode="&#xf8;" horiz-adv-x="819" d="M76 -193l133 240q-39 47 -39 141.5t27.5 274.5t35 220t19.5 105.5t22.5 94t25.5 72.5t32 61l43 43q25 25 55 33q80 23 138.5 22.5t90.5 -6.5l113 199h139l-141 -250q41 -47 42 -135t-27.5 -271.5t-35 -222.5t-19.5 -106.5t-22.5 -95t-25.5 -74t-32.5 -64.5t-41 -44 t-55.5 -36q-111 -33 -236 -14l-102 -187h-139zM295 245q0 -83 27.5 -117t97.5 -34q106 0 145 83t81 353.5t42 340t-27.5 102.5t-86 33t-91 -17.5t-53 -41t-39.5 -87.5q-23 -82 -59.5 -307t-36.5 -308z" />
<glyph unicode="&#xf9;" horiz-adv-x="788" d="M156 184.5q0 102.5 43 370.5l88 545q72 0 92 -5t20 -22.5t-8 -66.5l-69 -447q-39 -256 -39 -321q0 -143 94 -144l221 133v52l131 821q72 0 92.5 -5t20.5 -22.5t-8 -66.5l-158 -1006q-74 0 -94.5 5t-20.5 30l12 86l-206 -135q-117 0 -164 48t-47 150.5zM457 1444l16 14 q55 49 74.5 49t75.5 -67l114 -156l-84 -74z" />
<glyph unicode="&#xfa;" horiz-adv-x="788" d="M156 184.5q0 102.5 43 370.5l88 545q72 0 92 -5t20 -22.5t-8 -66.5l-69 -447q-39 -256 -39 -321q0 -143 94 -144l221 133v52l131 821q72 0 92.5 -5t20.5 -22.5t-8 -66.5l-158 -1006q-74 0 -94.5 5t-20.5 30l12 86l-206 -135q-117 0 -164 48t-47 150.5zM506 1300l164 156 q80 68 97.5 67.5t72.5 -63.5l-275 -233z" />
<glyph unicode="&#xfb;" horiz-adv-x="788" d="M156 184.5q0 102.5 43 370.5l88 545q72 0 92 -5t20 -22.5t-8 -66.5l-69 -447q-39 -256 -39 -321q0 -143 94 -144l221 133v52l131 821q72 0 92.5 -5t20.5 -22.5t-8 -66.5l-158 -1006q-74 0 -94.5 5t-20.5 30l12 86l-206 -135q-117 0 -164 48t-47 150.5zM358 1284l19 113 l231 123h54l196 -125l-18 -111l-219 135z" />
<glyph unicode="&#xfc;" horiz-adv-x="788" d="M156 184.5q0 102.5 43 370.5l88 545q72 0 92 -5t20 -22.5t-8 -66.5l-69 -447q-39 -256 -39 -321q0 -143 94 -144l221 133v52l131 821q72 0 92.5 -5t20.5 -22.5t-8 -66.5l-158 -1006q-74 0 -94.5 5t-20.5 30l12 86l-206 -135q-117 0 -164 48t-47 150.5zM375 1333 q0 59 37 89t72.5 30t58 -21.5t22.5 -60.5t-33.5 -71.5t-71.5 -32.5t-61.5 22.5t-23.5 44.5zM668 1333q0 59 36.5 89t73.5 30t58.5 -21.5t21.5 -60.5t-33.5 -71.5t-71.5 -32.5t-61.5 22.5t-23.5 44.5z" />
<glyph unicode="&#xfd;" horiz-adv-x="649" d="M-10 -410l12 97q113 0 179.5 87t66.5 208q0 68 -33 1118q88 0 103.5 -12.5t17.5 -81.5l8 -863h27l301 957h49q41 0 47 -8.5t6 -18.5q-16 -121 -366 -1073q-8 -20 -28 -76.5t-28 -77t-29.5 -66.5t-39 -64.5t-48 -49.5t-63.5 -43q-88 -33 -182 -33zM406 1309l163 155 q80 68 97.5 67.5t72.5 -63.5l-274 -233z" />
<glyph unicode="&#xfe;" horiz-adv-x="790" d="M57 -410l301 1909q99 0 107 -16q4 -8 4 -26.5t-6 -51.5l-55 -348l182 57q139 0 193.5 -52t54.5 -159.5t-26 -271.5t-32 -200t-18 -97.5t-19.5 -88t-21.5 -70.5t-27.5 -61.5t-34 -46t-43 -39t-51.5 -22.5q-51 -20 -145 -20l-162 123l-65 -410q-14 -82 -31 -95.5 t-105 -13.5zM270 184l166 -90q117 0 156 86q47 100 104 479q16 115 16.5 191t-30.5 116t-102 40l-189 -50z" />
<glyph unicode="&#xff;" horiz-adv-x="649" d="M-10 -410l12 97q113 0 179.5 87t66.5 208q0 68 -33 1118q88 0 103.5 -12.5t17.5 -81.5l8 -863h27l301 957h49q41 0 47 -8.5t6 -18.5q-16 -121 -366 -1073q-8 -20 -28 -76.5t-28 -77t-29.5 -66.5t-39 -64.5t-48 -49.5t-63.5 -43q-88 -33 -182 -33zM307 1337q0 59 37 89 t74 30t58.5 -21.5t21.5 -60.5t-34 -71.5t-72 -32.5t-61.5 22.5t-23.5 44.5zM600 1337q0 59 37 89t72.5 30t58.5 -21.5t23 -60.5t-34 -71.5t-72 -32.5t-61.5 22.5t-23.5 44.5z" />
<glyph unicode="&#x152;" horiz-adv-x="1337" d="M174 268.5q0 139.5 58.5 500.5t103.5 480q68 176 211 226q74 25 182 24l184 -24h580l-18 -109h-447v-51l-63 -408l-17 -51h418l-18 -117h-416v-51l-84 -520l-14 -51h464l-18 -117h-600l-191 -14q-176 0 -245.5 71.5t-69.5 211zM311 339q0 -120 44 -178.5t153 -58.5 l190 15l197 1241l-184 24q-84 0 -119 -22.5t-55.5 -35.5t-40 -48t-31.5 -56.5t-26.5 -72.5t-22.5 -80t-20.5 -96.5t-18.5 -103.5t-36 -222t-30 -306z" />
<glyph unicode="&#x153;" horiz-adv-x="1286" d="M160 190.5q0 100.5 28.5 280.5t36.5 226t22.5 115t27 100.5t34 73.5t46 59.5t59.5 35.5q57 33 178 33q176 0 223 -82q43 45 97.5 63.5t160 18.5t151.5 -47t46 -129t-31 -279l-8 -122h-451v-60q-31 -178 -30.5 -249.5t33 -102.5t136 -31t230.5 27l-16 -101 q-160 -35 -253.5 -34.5t-140.5 21t-75 69.5q-76 -90 -235 -90t-214 52t-55 152.5zM285 243.5q0 -75.5 32.5 -112.5t112.5 -37q123 0 165 91t82 346t40 329t-32 110t-94.5 36t-94 -8.5t-57 -39t-40 -54t-30.5 -89.5q-25 -109 -54.5 -302.5t-29.5 -269zM811 649h317l7 103 q18 119 18 164t-23.5 67.5t-85.5 22.5q-119 0 -155.5 -61.5t-59.5 -229.5q0 -6 -1 -11.5t-1 -9.5z" />
<glyph unicode="&#x178;" horiz-adv-x="768" d="M285 1475h30q78 0 93.5 -11.5t27.5 -83.5l88 -495h11l301 590h55q55 0 55 -23q0 -41 -383 -741l-110 -711h-11q-98 0 -106 16q-4 8 -4 24.5t102 670.5zM451 1731q0 59 36.5 89t73.5 30t58.5 -22.5t21.5 -60.5t-34 -71t-71.5 -33t-61 22.5t-23.5 45.5zM743 1731 q0 59 37 89t73 30t58.5 -22.5t22.5 -60.5t-34 -71t-71.5 -33t-61.5 22.5t-24 45.5z" />
<glyph unicode="&#x2c6;" horiz-adv-x="720" d="M317 1264l19 112l231 123h54l196 -125l-18 -110l-219 135z" />
<glyph unicode="&#x2dc;" horiz-adv-x="772" d="M354 1370l8 43q10 47 25 54.5t107 7.5l237 -9q55 0 96 9l25 -5l-6 -43q-6 -45 -23.5 -53t-107.5 -8l-238 6q-68 0 -96 -6z" />
<glyph unicode="&#x2000;" horiz-adv-x="949" />
<glyph unicode="&#x2001;" horiz-adv-x="1898" />
<glyph unicode="&#x2002;" horiz-adv-x="949" />
<glyph unicode="&#x2003;" horiz-adv-x="1898" />
<glyph unicode="&#x2004;" horiz-adv-x="632" />
<glyph unicode="&#x2005;" horiz-adv-x="474" />
<glyph unicode="&#x2006;" horiz-adv-x="316" />
<glyph unicode="&#x2007;" horiz-adv-x="316" />
<glyph unicode="&#x2008;" horiz-adv-x="237" />
<glyph unicode="&#x2009;" horiz-adv-x="379" />
<glyph unicode="&#x200a;" horiz-adv-x="105" />
<glyph unicode="&#x2010;" horiz-adv-x="688" d="M219 614l17 105h438l-17 -105h-438z" />
<glyph unicode="&#x2011;" horiz-adv-x="688" d="M219 614l17 105h438l-17 -105h-438z" />
<glyph unicode="&#x2012;" horiz-adv-x="688" d="M219 614l17 105h438l-17 -105h-438z" />
<glyph unicode="&#x2013;" horiz-adv-x="808" d="M219 614l17 105h559l-17 -105h-559z" />
<glyph unicode="&#x2014;" horiz-adv-x="1255" d="M219 614l17 105h1007l-16 -105h-1008z" />
<glyph unicode="&#x2018;" horiz-adv-x="339" d="M223 1111q0 32 51.5 127t102.5 178t57 83l72 -51q-92 -209 -92 -297q0 -47 -32 -82t-73 -35t-63.5 22.5t-22.5 54.5z" />
<glyph unicode="&#x2019;" horiz-adv-x="335" d="M231 1085q95 207 95 297q0 49 30.5 83t71.5 34t63.5 -22.5t22.5 -55t-51 -128t-102.5 -177.5t-57.5 -82z" />
<glyph unicode="&#x201a;" horiz-adv-x="335" d="M25 -227q94 213 94 321q6 39 37.5 65.5t68.5 26.5t59.5 -22.5t22.5 -58t-98 -210t-113 -174.5z" />
<glyph unicode="&#x201c;" horiz-adv-x="702" d="M260 1111q0 32 51 127t102.5 178t57.5 83l72 -51q-92 -209 -92 -297q0 -47 -32 -82t-73 -35t-63.5 22.5t-22.5 54.5zM555 1111q0 32 51 127t102.5 178t57.5 83l72 -51q-93 -209 -93 -297q0 -47 -31.5 -82t-72.5 -35t-63.5 22.5t-22.5 54.5z" />
<glyph unicode="&#x201d;" horiz-adv-x="702" d="M264 1085q94 207 94 297q0 49 31 83t72 34t63.5 -22.5t22.5 -55t-51.5 -128t-102.5 -177.5t-57 -82zM559 1085q94 207 94 297q0 49 31 83t72 34t63.5 -22.5t22.5 -55t-51.5 -128t-102.5 -177.5t-57 -82z" />
<glyph unicode="&#x201e;" horiz-adv-x="706" d="M57 -227q94 213 95 321q6 39 37.5 65.5t68.5 26.5t59.5 -22.5t22.5 -58t-98.5 -210t-112.5 -174.5zM356 -227q94 213 95 321q6 39 37.5 65.5t68.5 26.5t59.5 -22.5t22.5 -58t-98.5 -210t-112.5 -174.5z" />
<glyph unicode="&#x2022;" horiz-adv-x="454" d="M180 594q0 72 53.5 117t108.5 45t90 -34t35 -90.5t-52.5 -106.5t-108.5 -50t-91 35t-35 84z" />
<glyph unicode="&#x2026;" horiz-adv-x="1001" d="M127 68q0 59 36 88.5t72.5 29.5t59 -21.5t22.5 -60t-33.5 -71.5t-71.5 -33t-61.5 22.5t-23.5 45.5zM426 68q0 59 36 88.5t72.5 29.5t59 -21.5t22.5 -60t-33.5 -71.5t-71.5 -33t-61.5 22.5t-23.5 45.5zM713 68q0 59 35.5 88.5t72.5 29.5t59.5 -21.5t22.5 -60t-33.5 -71.5 t-71.5 -33t-61.5 22.5t-23.5 45.5z" />
<glyph unicode="&#x202f;" horiz-adv-x="379" />
<glyph unicode="&#x2039;" horiz-adv-x="378" d="M129 592l8 53l197 318h110l-211 -345l103 -342h-113z" />
<glyph unicode="&#x203a;" horiz-adv-x="378" d="M129 276l209 342l-100 345h110l94 -318l-8 -53l-192 -316h-113z" />
<glyph unicode="&#x205f;" horiz-adv-x="474" />
<glyph unicode="&#x20ac;" horiz-adv-x="806" d="M125 418l6 43q6 45 23.5 53t107.5 8h41l-4 25l8 53l10 18q-25 2 -68.5 2.5t-60.5 -4.5l-26 5l8 43q10 47 24.5 54t106.5 7h35l-4 31q39 203 103.5 281.5t221.5 78.5l201 -14q-12 -70 -27.5 -82t-91.5 -12h-100q-84 0 -123 -56.5t-67 -201.5l-17 -33q182 -14 216 -14.5 t65 6.5l26 -4l-6 -43q-6 -45 -23.5 -53.5t-97.5 -8.5t-192 10l4 -20l-8 -51l-13 -27q143 -12 192.5 -12t80.5 6l24 -4l-6 -43q-6 -45 -23.5 -53.5t-83 -8.5t-200.5 9l4 -25q-12 -111 -12 -164q0 -121 117 -121h202l-14 -94l-205 -14q-125 0 -173 49t-48 142t16 212l15 25 q-29 2 -75 2t-64 -4z" />
<glyph unicode="&#x2122;" horiz-adv-x="1105" d="M315 1403l15 96h309l-14 -96h-115v-37l-96 -604h-92l96 604l10 37h-113zM590 762l117 737h88l108 -328h17l208 328h89l-117 -737h-88l90 569l-156 -262h-102l-76 262l-90 -569h-88z" />
<glyph unicode="&#x25fc;" horiz-adv-x="1095" d="M0 0v1096h1096v-1096h-1096z" />
</font>
</defs>
</svg>
